<?xml version="1.0" encoding="UTF-8" standalone="no"?>
<!-- Created with Inkscape (http://www.inkscape.org/) -->

<svg
   xmlns:dc="http://purl.org/dc/elements/1.1/"
   xmlns:cc="http://creativecommons.org/ns#"
   xmlns:rdf="http://www.w3.org/1999/02/22-rdf-syntax-ns#"
   xmlns:svg="http://www.w3.org/2000/svg"
   xmlns="http://www.w3.org/2000/svg"
   xmlns:sodipodi="http://sodipodi.sourceforge.net/DTD/sodipodi-0.dtd"
   xmlns:inkscape="http://www.inkscape.org/namespaces/inkscape"
   id="svg2"
   version="1.1"
   inkscape:version="0.48.5 r10040"
   width="625"
   height="625"
   xml:space="preserve"
   sodipodi:docname="codepen-logo.pdf"><metadata
     id="metadata8"><rdf:RDF><cc:Work
         rdf:about=""><dc:format>image/svg+xml</dc:format><dc:type
           rdf:resource="http://purl.org/dc/dcmitype/StillImage" /><dc:title></dc:title></cc:Work></rdf:RDF></metadata><defs
     id="defs6"><clipPath
       clipPathUnits="userSpaceOnUse"
       id="clipPath40"><path
         d="M 0,500 500,500 500,0 0,0 0,500 z"
         id="path42" /></clipPath></defs><sodipodi:namedview
     pagecolor="#ffffff"
     bordercolor="#666666"
     borderopacity="1"
     objecttolerance="10"
     gridtolerance="10"
     guidetolerance="10"
     inkscape:pageopacity="0"
     inkscape:pageshadow="2"
     inkscape:window-width="640"
     inkscape:window-height="480"
     id="namedview4"
     showgrid="false"
     inkscape:zoom="0.461675"
     inkscape:cx="312.5"
     inkscape:cy="312.5"
     inkscape:window-x="0"
     inkscape:window-y="0"
     inkscape:window-maximized="0"
     inkscape:current-layer="g10" /><g
     id="g10"
     inkscape:groupmode="layer"
     inkscape:label="codepen-logo"
     transform="matrix(1.25,0,0,-1.25,0,625)"><g
       id="g12"
       transform="translate(129.9512,273.332)"><path
         d="M 0,0 0,-42.071 31.45,-21.036 0,0 z"
         style="fill:#100f0d;fill-opacity:1;fill-rule:nonzero;stroke:none"
         id="path14" /></g><g
       id="g16"
       transform="translate(238.5024,303.8696)"><path
         d="M 0,0 0,58.628 -98.487,-7.025 -54.493,-36.455 0,0 z"
         style="fill:#100f0d;fill-opacity:1;fill-rule:nonzero;stroke:none"
         id="path18" /></g><g
       id="g20"
       transform="translate(362.1309,296.8447)"><path
         d="M 0,0 -98.488,65.653 -98.488,7.025 -43.991,-29.43 0,0 z"
         style="fill:#100f0d;fill-opacity:1;fill-rule:nonzero;stroke:none"
         id="path22" /></g><g
       id="g24"
       transform="translate(140.0151,207.748)"><path
         d="M 0,0 98.487,-65.653 98.487,-7.024 43.995,29.422 0,0 z"
         style="fill:#100f0d;fill-opacity:1;fill-rule:nonzero;stroke:none"
         id="path26" /></g><g
       id="g28"
       transform="translate(263.6426,200.7236)"><path
         d="M 0,0 0,-58.629 98.488,7.024 54.497,36.446 0,0 z"
         style="fill:#100f0d;fill-opacity:1;fill-rule:nonzero;stroke:none"
         id="path30" /></g><g
       id="g32"
       transform="translate(251.0713,282.0337)"><path
         d="M 0,0 -44.457,-29.737 0,-59.475 44.46,-29.737 0,0 z"
         style="fill:#100f0d;fill-opacity:1;fill-rule:nonzero;stroke:none"
         id="path34" /></g><g
       id="g36"><g
         id="g38"
         clip-path="url(#clipPath40)"><g
           id="g44"
           transform="translate(397.3311,207.7324)"><path
             d="M 0,0 C 0,-0.554 -0.039,-1.1 -0.112,-1.646 -0.139,-1.823 -0.182,-2.008 -0.212,-2.185 -0.277,-2.539 -0.339,-2.893 -0.432,-3.239 -0.485,-3.447 -0.562,-3.646 -0.628,-3.847 -0.728,-4.154 -0.827,-4.463 -0.95,-4.771 -1.035,-4.978 -1.14,-5.178 -1.231,-5.378 -1.366,-5.663 -1.505,-5.939 -1.658,-6.217 -1.771,-6.409 -1.897,-6.602 -2.017,-6.794 -2.186,-7.056 -2.358,-7.31 -2.547,-7.556 -2.686,-7.748 -2.828,-7.925 -2.981,-8.102 -3.178,-8.332 -3.386,-8.563 -3.605,-8.778 -3.771,-8.948 -3.933,-9.117 -4.105,-9.271 -4.332,-9.479 -4.574,-9.679 -4.82,-9.871 -5.006,-10.018 -5.19,-10.164 -5.387,-10.302 -5.459,-10.349 -5.524,-10.41 -5.598,-10.456 L -139.285,-99.584 C -141.397,-100.992 -143.825,-101.699 -146.26,-101.699 -148.687,-101.699 -151.119,-100.992 -153.231,-99.584 L -286.922,-10.456 C -286.992,-10.41 -287.057,-10.349 -287.126,-10.302 -287.323,-10.164 -287.511,-10.018 -287.696,-9.871 -287.942,-9.679 -288.181,-9.479 -288.408,-9.271 -288.581,-9.117 -288.746,-8.948 -288.912,-8.778 -289.131,-8.563 -289.334,-8.332 -289.539,-8.102 -289.685,-7.925 -289.831,-7.748 -289.969,-7.556 -290.154,-7.31 -290.331,-7.056 -290.497,-6.794 -290.624,-6.602 -290.743,-6.409 -290.858,-6.217 -291.012,-5.939 -291.15,-5.663 -291.285,-5.378 -291.381,-5.178 -291.478,-4.978 -291.566,-4.771 -291.689,-4.463 -291.793,-4.154 -291.889,-3.847 -291.958,-3.646 -292.027,-3.447 -292.085,-3.239 -292.178,-2.893 -292.239,-2.539 -292.305,-2.185 -292.335,-2.008 -292.381,-1.823 -292.405,-1.646 -292.478,-1.1 -292.52,-0.554 -292.52,0 L -292.52,89.128 C -292.52,89.682 -292.478,90.228 -292.405,90.767 -292.381,90.951 -292.335,91.128 -292.305,91.313 -292.239,91.667 -292.178,92.021 -292.085,92.367 -292.027,92.575 -291.958,92.775 -291.889,92.975 -291.793,93.283 -291.689,93.59 -291.566,93.891 -291.478,94.098 -291.381,94.306 -291.285,94.506 -291.15,94.791 -291.012,95.068 -290.858,95.337 -290.743,95.537 -290.624,95.729 -290.497,95.922 -290.331,96.183 -290.154,96.437 -289.969,96.684 -289.831,96.868 -289.685,97.053 -289.539,97.229 -289.334,97.46 -289.131,97.691 -288.912,97.907 -288.746,98.076 -288.581,98.245 -288.408,98.399 -288.181,98.607 -287.942,98.807 -287.696,99 -287.511,99.146 -287.323,99.292 -287.126,99.43 -287.057,99.477 -286.992,99.538 -286.922,99.584 L -153.231,188.712 C -149.007,191.528 -143.51,191.528 -139.285,188.712 L -5.598,99.584 C -5.524,99.538 -5.459,99.477 -5.387,99.43 -5.19,99.292 -5.006,99.146 -4.82,99 -4.574,98.807 -4.332,98.607 -4.105,98.399 -3.933,98.245 -3.771,98.076 -3.605,97.907 -3.386,97.691 -3.178,97.46 -2.981,97.229 -2.828,97.053 -2.686,96.868 -2.547,96.684 -2.358,96.437 -2.186,96.183 -2.017,95.922 -1.897,95.729 -1.771,95.537 -1.658,95.337 -1.505,95.068 -1.366,94.791 -1.231,94.506 -1.14,94.306 -1.035,94.098 -0.95,93.891 -0.827,93.59 -0.728,93.283 -0.628,92.975 -0.562,92.775 -0.485,92.575 -0.432,92.367 -0.339,92.021 -0.277,91.667 -0.212,91.313 -0.182,91.128 -0.139,90.951 -0.112,90.767 -0.039,90.228 0,89.682 0,89.128 L 0,0 z M -146.26,281.113 C -276.897,281.113 -382.806,175.208 -382.806,44.564 -382.806,-86.081 -276.897,-191.981 -146.26,-191.981 -15.615,-191.981 90.289,-86.081 90.289,44.564 90.289,175.208 -15.615,281.113 -146.26,281.113"
             style="fill:#100f0d;fill-opacity:1;fill-rule:nonzero;stroke:none"
             id="path46" /></g><g
           id="g48"
           transform="translate(372.1943,231.2607)"><path
             d="M 0,0 0,42.071 -31.445,21.036 0,0 z"
             style="fill:#100f0d;fill-opacity:1;fill-rule:nonzero;stroke:none"
             id="path50" /></g></g></g></g></svg>