<?xml version="1.0" encoding="UTF-8" standalone="no"?>
<svg
   xmlns:dc="http://purl.org/dc/elements/1.1/"
   xmlns:cc="http://creativecommons.org/ns#"
   xmlns:rdf="http://www.w3.org/1999/02/22-rdf-syntax-ns#"
   xmlns:svg="http://www.w3.org/2000/svg"
   xmlns="http://www.w3.org/2000/svg"
   xmlns:xlink="http://www.w3.org/1999/xlink"
   xmlns:sodipodi="http://sodipodi.sourceforge.net/DTD/sodipodi-0.dtd"
   xmlns:inkscape="http://www.inkscape.org/namespaces/inkscape"
   width="400"
   height="400"
   viewBox="0 0 400 400"
   version="1.1"
   preserveAspectRatio="xMidYMid"
   id="svg50"
   sodipodi:docname="firebase-seeklogo.com.svg"
   inkscape:version="0.92.3 (2405546, 2018-03-11)">
  <metadata
     id="metadata54">
    <rdf:RDF>
      <cc:Work
         rdf:about="">
        <dc:format>image/svg+xml</dc:format>
        <dc:type
           rdf:resource="http://purl.org/dc/dcmitype/StillImage" />
        <dc:title></dc:title>
      </cc:Work>
    </rdf:RDF>
  </metadata>
  <sodipodi:namedview
     pagecolor="#ffffff"
     bordercolor="#666666"
     borderopacity="1"
     objecttolerance="10"
     gridtolerance="10"
     guidetolerance="10"
     inkscape:pageopacity="0"
     inkscape:pageshadow="2"
     inkscape:window-width="1366"
     inkscape:window-height="713"
     id="namedview52"
     showgrid="false"
     inkscape:zoom="0.67236467"
     inkscape:cx="172.61864"
     inkscape:cy="175.5"
     inkscape:window-x="0"
     inkscape:window-y="27"
     inkscape:window-maximized="1"
     inkscape:current-layer="svg50" />
  <defs
     id="defs22">
    <path
       d="M 1.2527344,280.73164 2.8583453,277.60086 102.21118,89.083355 58.061327,5.6082033 C 54.392001,-1.2830458 45.074125,0.4736744 43.86992,8.1878909 Z"
       id="path-1"
       inkscape:connector-curvature="0" />
    <filter
       x="-0.5"
       y="-0.5"
       width="2"
       height="2"
       filterUnits="objectBoundingBox"
       id="filter-2">
      <feGaussianBlur
         stdDeviation="17.5"
         in="SourceAlpha"
         result="shadowBlurInner1"
         id="feGaussianBlur3" />
      <feOffset
         dx="0"
         dy="0"
         in="shadowBlurInner1"
         result="shadowOffsetInner1"
         id="feOffset5" />
      <feComposite
         in="shadowOffsetInner1"
         in2="SourceAlpha"
         operator="arithmetic"
         k2="-1"
         k3="1"
         result="shadowInnerInner1"
         id="feComposite7"
         k1="0"
         k4="0" />
      <feColorMatrix
         values="0 0 0 0 0   0 0 0 0 0   0 0 0 0 0  0 0 0 0.06 0"
         type="matrix"
         in="shadowInnerInner1"
         id="feColorMatrix9" />
    </filter>
    <path
       d="M 134.4171,148.97423 166.45572,116.16174 134.4171,55.154687 c -3.04227,-5.791096 -10.43319,-6.397851 -13.44327,-0.590039 l -17.70508,34.109182 -0.52933,1.743717 z"
       id="path-3"
       inkscape:connector-curvature="0" />
    <filter
       x="-0.5"
       y="-0.5"
       width="2"
       height="2"
       filterUnits="objectBoundingBox"
       id="filter-4">
      <feGaussianBlur
         stdDeviation="3.5"
         in="SourceAlpha"
         result="shadowBlurInner1"
         id="feGaussianBlur13" />
      <feOffset
         dx="1"
         dy="-9"
         in="shadowBlurInner1"
         result="shadowOffsetInner1"
         id="feOffset15" />
      <feComposite
         in="shadowOffsetInner1"
         in2="SourceAlpha"
         operator="arithmetic"
         k2="-1"
         k3="1"
         result="shadowInnerInner1"
         id="feComposite17"
         k1="0"
         k4="0" />
      <feColorMatrix
         values="0 0 0 0 0   0 0 0 0 0   0 0 0 0 0  0 0 0 0.09 0"
         type="matrix"
         in="shadowInnerInner1"
         id="feColorMatrix19" />
    </filter>
  </defs>
  <g
     id="g48"
     transform="matrix(1.0904837,0,0,1.0904837,64.454197,10.956399)">
    <path
       d="M 0,282.99762 2.1225075,280.0256 102.52736,89.511928 102.73942,87.495132 58.478806,4.3581771 C 54.770627,-2.6060418 44.331303,-0.84524577 43.114348,6.9506547 Z"
       id="path24"
       inkscape:connector-curvature="0"
       style="fill:#ffc24a" />
    <g
       id="g30">
      <use
         xlink:href="#path-1"
         id="use26"
         style="fill:#ffa712;fill-rule:evenodd"
         x="0"
         y="0"
         width="100%"
         height="100%" />
      <use
         xlink:href="#path-1"
         id="use28"
         style="fill:#000000;fill-opacity:1;filter:url(#filter-2)"
         x="0"
         y="0"
         width="100%"
         height="100%" />
    </g>
    <path
       d="M 135.00497,150.3807 167.9602,116.62946 134.99542,53.699311 c -3.12931,-5.956776 -11.8666,-5.97397 -14.9628,0 l -17.61161,33.588774 v 2.860659 z"
       id="path32"
       inkscape:connector-curvature="0"
       style="fill:#f4bd62" />
    <g
       id="g38">
      <use
         xlink:href="#path-3"
         id="use34"
         style="fill:#ffa50e;fill-rule:evenodd"
         x="0"
         y="0"
         width="100%"
         height="100%" />
      <use
         xlink:href="#path-3"
         id="use36"
         style="fill:#000000;fill-opacity:1;filter:url(#filter-4)"
         x="0"
         y="0"
         width="100%"
         height="100%" />
    </g>
    <polygon
       points="0,282.99762 0.96209717,282.0304 4.4577114,280.60956 132.93532,152.60956 134.56303,148.1786 102.51312,87.104858 "
       id="polygon40"
       style="fill:#f6820c" />
    <path
       d="M 139.12097,347.55127 255.39592,282.70367 222.1917,78.209337 c -1.03865,-6.398089 -8.88804,-8.927522 -13.46739,-4.3399 L 2.5472637e-4,282.99788 115.60845,347.54554 c 7.30619,4.07944 16.20442,4.08135 23.51252,0.006"
       id="path42"
       inkscape:connector-curvature="0"
       style="fill:#fde068" />
    <path
       d="M 254.35408,282.15984 221.40194,79.217937 c -1.03077,-6.349518 -7.55815,-8.976982 -12.10273,-4.424187 L 1.2894531,282.60078 115.62783,346.50946 c 7.25072,4.04847 16.0814,4.05037 23.33402,0.006 z"
       id="path44"
       inkscape:connector-curvature="0"
       style="fill:#fcca3f" />
    <path
       d="m 139.12091,345.64082 c -7.3081,4.07562 -16.20633,4.07371 -23.51252,-0.006 L 0.93134768,282.01455 1.9104478e-4,282.99788 115.60839,347.54554 c 7.30619,4.07944 16.20442,4.08135 23.51252,0.006 l 116.27494,-64.8476 -0.28465,-1.75189 z"
       id="path46"
       inkscape:connector-curvature="0"
       style="fill:#eeab37" />
  </g>
</svg>
