<svg xmlns="http://www.w3.org/2000/svg" width="156.97" height="153.242">
    <path d="M78.485 3C36.801 3 3 36.794 3 78.485c0 33.35 21.629 61.645 51.621 71.626 3.773.699 5.158-1.637 5.158-3.631 0-1.799-.07-7.746-.103-14.054-21 4.567-25.431-8.906-25.431-8.906-3.434-8.724-8.381-11.045-8.381-11.045-6.849-4.685.516-4.589.516-4.589 7.58.533 11.571 7.78 11.571 7.78 6.733 11.539 17.659 8.203 21.967 6.274.678-4.878 2.633-8.209 4.792-10.094-16.766-1.907-34.391-8.381-34.391-37.305 0-8.24 2.949-14.975 7.777-20.261-.783-1.901-3.367-9.579.733-19.976 0 0 6.339-2.028 20.762 7.738 6.022-1.672 12.479-2.51 18.894-2.54 6.415.03 12.878.868 18.91 2.54 14.408-9.766 20.738-7.738 20.738-7.738 4.108 10.397 1.525 18.075.74 19.976 4.84 5.286 7.768 12.021 7.768 20.261 0 28.994-17.659 35.377-34.467 37.245 2.707 2.343 5.12 6.937 5.12 13.979 0 10.1-.086 18.229-.086 20.715 0 2.01 1.357 4.363 5.183 3.623 29.978-9.993 51.579-38.278 51.579-71.618C153.97 36.794 120.174 3 78.485 3" fill="#1b1817" fill-rule="evenodd"/>
</svg>
