<svg xmlns="http://www.w3.org/2000/svg" width="456" height="640" viewBox="0 0 10000 14115">
    <path fill="#e44d26" d="M9089 12980l-4095 1135-4084-1134L0 2774h10000"/>
    <path fill="#f16529" d="M9088 3608H5000v9639l3309-917"/>
    <path d="M8132 4860H4996v1252h3024m-113 1282H4996v4555l2567-712M4996 8646h1543l-145 1624-1398 377" fill="#fff"/>
    <path d="M2198 8646h2801V7394H3342l-114-1282h1771V4860H1860m569 6378l2567 711 4-1v-1302l-4 1-1396-376-89-999H2254" fill="#ebebeb"/>
    <path d="M2149 0v629h-582V0M931 0v1903h636v-637h582v637h636V0m276 0v631h561v1272h636V631h560V0m1757 0l-407 669L5760 0m-663 0v1903h622V960l438 677h11l438-677v943h633V0m317 0v1903h1531v-629h-895V0"/>
</svg>
