<?xml version="1.0" encoding="UTF-8" standalone="no"?>
<svg
   xmlns:dc="http://purl.org/dc/elements/1.1/"
   xmlns:cc="http://creativecommons.org/ns#"
   xmlns:rdf="http://www.w3.org/1999/02/22-rdf-syntax-ns#"
   xmlns:svg="http://www.w3.org/2000/svg"
   xmlns="http://www.w3.org/2000/svg"
   xmlns:sodipodi="http://sodipodi.sourceforge.net/DTD/sodipodi-0.dtd"
   xmlns:inkscape="http://www.inkscape.org/namespaces/inkscape"
   width="400"
   height="400"
   viewBox="0 0 400 400"
   version="1.1"
   id="svg17"
   sodipodi:docname="nx-logo.svg"
   inkscape:version="0.92.3 (2405546, 2018-03-11)">
  <metadata
     id="metadata23">
    <rdf:RDF>
      <cc:Work
         rdf:about="">
        <dc:format>image/svg+xml</dc:format>
        <dc:type
           rdf:resource="http://purl.org/dc/dcmitype/StillImage" />
        <dc:title></dc:title>
      </cc:Work>
    </rdf:RDF>
  </metadata>
  <defs
     id="defs21" />
  <sodipodi:namedview
     pagecolor="#ffffff"
     bordercolor="#666666"
     borderopacity="1"
     objecttolerance="10"
     gridtolerance="10"
     guidetolerance="10"
     inkscape:pageopacity="0"
     inkscape:pageshadow="2"
     inkscape:window-width="1366"
     inkscape:window-height="713"
     id="namedview19"
     showgrid="false"
     inkscape:zoom="1.3053435"
     inkscape:cx="188.11023"
     inkscape:cy="206.17424"
     inkscape:window-x="0"
     inkscape:window-y="27"
     inkscape:window-maximized="1"
     inkscape:current-layer="Logos" />
  <g
     style="fill:none;fill-rule:nonzero;stroke:none;stroke-width:1"
     id="Logos"
     transform="translate(-487,-265)">
    <rect
       style="fill:#000051;fill-opacity:1;stroke:#0082ff;stroke-width:1.92831886;stroke-opacity:1"
       id="rect847"
       width="398.96634"
       height="398.02499"
       x="487.4642"
       y="266.30621" />
    <g
       id="Nx_Flat_White"
       transform="matrix(1.5243204,0,0,1.5217439,487.26139,340.71369)">
      <polygon
         id="Path"
         points="97.44,96.3 40.24,0 0,0 0,162.57 39.79,162.57 39.92,66.39 96.53,158.26 130.68,104.59 97.49,52.71 "
         style="fill:#ffffff" />
      <polygon
         id="polygon3"
         points="137.33,41.33 137.33,0 97.54,0 97.49,41.33 97.5,41.79 137.24,41.79 "
         style="fill:#ffffff" />
      <path
         d="m 198.66,86.86 c -9.52013,-0.180478 -18.12128,5.656445 -21.47,14.57 5.57479,-8.336898 16.18967,-11.686779 25.54,-8.06 4.32,1.76 10,4.6 14.5,3.08 -4.27969,-6.006119 -11.19511,-9.577405 -18.57,-9.59 z"
         id="path5"
         inkscape:connector-curvature="0"
         style="fill:#96d8e9" />
      <path
         d="m 243.75,106.42 c 0,-4.87 -2.65,-6 -8.15,-8 C 231.52,97 226.89,95.4 223.52,91 c -0.66,-0.87 -1.27,-1.85 -1.92,-2.89 -1.45618,-2.69359 -3.43073,-5.072571 -5.81,-7 -3.21,-2.36 -7.42,-3.51 -12.88,-3.51 -10.95574,0.0077 -20.82581,6.620617 -25,16.75 5.27696,-7.322176 14.04672,-11.289497 23.03015,-10.418539 8.98343,0.870958 16.82774,6.449041 20.59985,14.648539 1.88461,3.10976 5.60134,4.59482 9.11,3.64 5.37,-1.15 5,3.93 13.11,5.65 z"
         id="path7"
         inkscape:connector-curvature="0"
         style="fill:#48c4e5" />
      <path
         d="m 261.46,105.38 v -0.11 C 261.34,73.03 235.17,45.45 202.91,45.45 183.20708,45.436316 164.82178,55.345061 154,71.81 l -0.21,-0.36 -16.56,-26 -39.73,-1.4e-5 37.75,59.120014 -36.84,58 H 137 l 16.79,-25.79 17.09,25.79 h 38.6 l -35,-55.08 c -0.581,-1.07316 -0.89646,-2.26989 -0.92,-3.49 -0.003,-7.779613 3.08661,-15.241355 8.58763,-20.742373 5.50101,-5.501017 12.96276,-8.590281 20.74237,-8.587627 16.22,0 18.93,9.7 22.43,14.26 6.91,9 20.71,5.06 20.71,16.8 v 0 c 0.0411,2.75095 1.54666,5.271 3.94959,6.6109 2.40293,1.33989 5.33816,1.29605 7.7,-0.115 2.36185,-1.41106 3.7915,-3.97495 3.75041,-6.7259 v 0 -0.12 z"
         id="path9"
         inkscape:connector-curvature="0"
         style="fill:#ffffff" />
      <path
         d="m 261.5,113.68 c 0.39228,2.7418 0.004,5.53865 -1.12,8.07 -2.2,5.09 -5.87,3.39 -5.87,3.39 0,0 -3.16,-1.54 -1.24,-4.49 2.13,-3.29 6.34,-2.91 8.23,-6.97 z"
         id="path11"
         inkscape:connector-curvature="0"
         style="fill:#ffffff" />
    </g>
  </g>
</svg>
