<?xml version="1.0" encoding="UTF-8" standalone="no"?>
<svg
   xmlns:dc="http://purl.org/dc/elements/1.1/"
   xmlns:cc="http://creativecommons.org/ns#"
   xmlns:rdf="http://www.w3.org/1999/02/22-rdf-syntax-ns#"
   xmlns:svg="http://www.w3.org/2000/svg"
   xmlns="http://www.w3.org/2000/svg"
   xmlns:sodipodi="http://sodipodi.sourceforge.net/DTD/sodipodi-0.dtd"
   xmlns:inkscape="http://www.inkscape.org/namespaces/inkscape"
   width="100"
   height="100"
   viewBox="0 0 100 100"
   version="1.1"
   preserveAspectRatio="xMidYMid"
   id="svg10"
   sodipodi:docname="protractor-logo.svg"
   inkscape:version="0.92.3 (2405546, 2018-03-11)">
  <metadata
     id="metadata16">
    <rdf:RDF>
      <cc:Work
         rdf:about="">
        <dc:format>image/svg+xml</dc:format>
        <dc:type
           rdf:resource="http://purl.org/dc/dcmitype/StillImage" />
        <dc:title></dc:title>
      </cc:Work>
    </rdf:RDF>
  </metadata>
  <defs
     id="defs14" />
  <sodipodi:namedview
     pagecolor="#ffffff"
     bordercolor="#666666"
     borderopacity="1"
     objecttolerance="10"
     gridtolerance="10"
     guidetolerance="10"
     inkscape:pageopacity="0"
     inkscape:pageshadow="2"
     inkscape:window-width="640"
     inkscape:window-height="480"
     id="namedview12"
     showgrid="false"
     inkscape:zoom="0.921875"
     inkscape:cx="128"
     inkscape:cy="128"
     inkscape:window-x="0"
     inkscape:window-y="27"
     inkscape:window-maximized="0"
     inkscape:current-layer="svg10" />
  <g
     id="g8"
     transform="matrix(0.38559322,0,0,0.38983051,0,0.20338983)">
    <path
       d="M 256,128 C 256,198.692 198.692,256 128,256 57.308,256 0,198.692 0,128 0,57.308 57.308,0 128,0 198.692,0 256,57.308 256,128"
       id="path2"
       inkscape:connector-curvature="0"
       style="fill:#e23237" />
    <path
       d="m 255.9999,127.9999 c 0,-0.416 -0.027,-0.825 -0.031,-1.24 -25.578,-24.658 -51.444,-49.633 -52.17,-50.492 -18.032,-21.338 -44.991,-34.888 -75.115,-34.888 -54.288,0 -98.298,44.01 -98.298,98.298 0,7.511 0.87,14.814 2.466,21.841 35.629,37.535 68.765,71.671 93.565,94.441 0.529,0.007 1.052,0.04 1.583,0.04 70.692,0 128,-57.307 128,-128"
       id="path4"
       inkscape:connector-curvature="0"
       style="fill:#b52e31" />
    <path
       d="M 191.8717,138.2551 H 66.0067 c -10e-4,-0.171 -0.012,-0.339 -0.012,-0.51 0,-34.764 28.181,-62.945 62.945,-62.945 34.763,0 62.945,28.181 62.945,62.945 0,0.171 -0.012,0.339 -0.013,0.51 z m 14.894,-2.849 h 20.109 c -1.082,-25.292 -11.712,-48.106 -28.389,-64.928 l -13.886,13.887 -3.358,-3.357 13.821,-13.821 c -17.031,-15.603 -39.58,-25.26 -64.38,-25.757 v 17.893 h -4.748 v -17.874 c -24.815,0.684 -47.326,10.549 -64.26,26.34 l 12.642,12.642 -3.357,3.357 -12.678,-12.678 c -16.326,16.76 -26.718,39.315 -27.788,64.296 h 18.409 v 4.748 h -18.503 c 0.036,7.342 0.89,14.487 2.452,21.365 h 191.666 c 1.561,-6.878 2.416,-14.023 2.452,-21.365 h -20.204 z"
       id="path6"
       inkscape:connector-curvature="0"
       style="fill:#ffffff" />
  </g>
</svg>
