<?xml version="1.0" encoding="UTF-8" standalone="no"?>
<svg
   xmlns:dc="http://purl.org/dc/elements/1.1/"
   xmlns:cc="http://creativecommons.org/ns#"
   xmlns:rdf="http://www.w3.org/1999/02/22-rdf-syntax-ns#"
   xmlns:svg="http://www.w3.org/2000/svg"
   xmlns="http://www.w3.org/2000/svg"
   xmlns:sodipodi="http://sodipodi.sourceforge.net/DTD/sodipodi-0.dtd"
   xmlns:inkscape="http://www.inkscape.org/namespaces/inkscape"
   id="svg"
   version="1.1"
   width="400"
   height="400"
   viewBox="0 0 400 400.00001"
   sodipodi:docname="stackblitz-logo.svg"
   inkscape:version="0.92.3 (2405546, 2018-03-11)">
  <metadata
     id="metadata4036">
    <rdf:RDF>
      <cc:Work
         rdf:about="">
        <dc:format>image/svg+xml</dc:format>
        <dc:type
           rdf:resource="http://purl.org/dc/dcmitype/StillImage" />
        <dc:title></dc:title>
      </cc:Work>
    </rdf:RDF>
  </metadata>
  <defs
     id="defs4034" />
  <sodipodi:namedview
     pagecolor="#ffffff"
     bordercolor="#666666"
     borderopacity="1"
     objecttolerance="10"
     gridtolerance="10"
     guidetolerance="10"
     inkscape:pageopacity="0"
     inkscape:pageshadow="2"
     inkscape:window-width="1366"
     inkscape:window-height="713"
     id="namedview4032"
     showgrid="false"
     inkscape:zoom="0.83583335"
     inkscape:cx="106.31104"
     inkscape:cy="187.96968"
     inkscape:window-x="0"
     inkscape:window-y="27"
     inkscape:window-maximized="1"
     inkscape:current-layer="svg" />
  <g
     id="g831"
     transform="translate(0,-60)">
    <g
       transform="translate(0,117.64706)"
       id="svgg">
      <path
         style="fill:#fbfbfb;fill-rule:evenodd;stroke:none"
         inkscape:connector-curvature="0"
         d="m 257.768,6.77 c -0.627,0.262 -5.133,4.893 -10.734,11.031 -2.02,2.214 -5.643,6.094 -8.051,8.624 -6.19,6.502 -9.575,10.148 -10.83,11.668 -0.597,0.723 -3.457,3.744 -6.356,6.714 -2.899,2.97 -6.147,6.402 -7.217,7.627 -2.305,2.638 -4.872,5.377 -9.895,10.56 -2.033,2.098 -4.523,4.767 -5.532,5.933 -2.579,2.974 -4.888,5.444 -9.511,10.169 -2.204,2.253 -4.493,4.663 -5.087,5.356 -2.73,3.184 -6.795,7.579 -10.722,11.593 -2.355,2.408 -4.644,4.824 -5.086,5.367 -0.441,0.544 -1.122,1.309 -1.512,1.7 -0.39,0.39 -1.662,1.789 -2.826,3.107 -1.164,1.318 -4.047,4.368 -6.406,6.777 -2.36,2.41 -4.713,4.885 -5.229,5.502 -1.967,2.352 -6.747,7.528 -11.1,12.021 -2.49,2.57 -5.353,5.613 -6.363,6.764 -2.945,3.356 -5.237,5.806 -9.515,10.175 -2.206,2.252 -4.432,4.601 -4.946,5.219 -0.514,0.617 -3.19,3.565 -5.947,6.549 -3.458,3.745 -4.96,5.564 -4.843,5.869 0.153,0.398 3.992,0.442 38.558,0.442 h 38.388 v 0.706 c 0,0.388 -0.127,0.706 -0.283,0.706 -0.155,0 -0.282,0.254 -0.282,0.565 0,0.311 -0.127,0.565 -0.283,0.565 -0.155,0 -0.282,0.318 -0.282,0.706 0,0.389 -0.127,0.707 -0.283,0.707 -0.155,0 -0.282,0.317 -0.282,0.706 0,0.388 -0.127,0.706 -0.283,0.706 -0.155,0 -0.282,0.254 -0.282,0.565 0,0.311 -0.127,0.565 -0.283,0.565 -0.155,0 -0.282,0.381 -0.282,0.847 0,0.466 -0.127,0.848 -0.283,0.848 -0.155,0 -0.282,0.254 -0.282,0.565 0,0.311 -0.127,0.565 -0.283,0.565 -0.155,0 -0.282,0.318 -0.282,0.706 0,0.388 -0.127,0.706 -0.283,0.706 -0.155,0 -0.282,0.318 -0.282,0.706 0,0.389 -0.127,0.707 -0.283,0.707 -0.155,0 -0.282,0.254 -0.282,0.565 0,0.31 -0.127,0.565 -0.283,0.565 -0.155,0 -0.282,0.31 -0.282,0.689 0,0.379 -0.127,0.768 -0.283,0.864 -0.155,0.096 -0.282,0.422 -0.282,0.723 0,0.302 -0.127,0.548 -0.283,0.548 -0.155,0 -0.282,0.318 -0.282,0.707 0,0.388 -0.127,0.706 -0.282,0.706 -0.156,0 -0.283,0.318 -0.283,0.706 0,0.388 -0.127,0.706 -0.282,0.706 -0.156,0 -0.283,0.255 -0.283,0.565 0,0.311 -0.127,0.565 -0.282,0.565 -0.156,0 -0.283,0.318 -0.283,0.706 0,0.389 -0.127,0.707 -0.282,0.707 -0.156,0 -0.283,0.317 -0.283,0.706 0,0.388 -0.127,0.706 -0.282,0.706 -0.156,0 -0.283,0.254 -0.283,0.565 0,0.311 -0.127,0.565 -0.282,0.565 -0.156,0 -0.283,0.254 -0.283,0.565 0,0.311 -0.127,0.565 -0.282,0.565 -0.156,0 -0.283,0.254 -0.283,0.565 0,0.311 -0.142,0.565 -0.315,0.565 -0.187,0 -0.259,0.297 -0.176,0.728 0.088,0.463 -0.003,0.783 -0.25,0.878 -0.214,0.082 -0.389,0.39 -0.389,0.684 0,0.294 -0.142,0.535 -0.315,0.535 -0.184,0 -0.259,0.294 -0.181,0.706 0.095,0.496 0.011,0.706 -0.282,0.706 -0.274,0 -0.368,0.188 -0.275,0.547 0.083,0.316 -0.022,0.61 -0.249,0.697 -0.216,0.083 -0.393,0.409 -0.393,0.725 0,0.315 -0.142,0.574 -0.315,0.574 -0.184,0 -0.259,0.294 -0.181,0.706 0.091,0.473 0.009,0.706 -0.249,0.706 -0.212,0 -0.385,0.254 -0.385,0.565 0,0.311 -0.143,0.565 -0.317,0.565 -0.203,0 -0.257,0.308 -0.149,0.847 0.127,0.636 0.065,0.848 -0.247,0.848 -0.229,0 -0.417,0.254 -0.417,0.565 0,0.311 -0.137,0.565 -0.304,0.565 -0.192,0 -0.236,0.314 -0.119,0.847 0.148,0.674 0.091,0.848 -0.279,0.848 -0.337,0 -0.416,0.156 -0.286,0.565 0.128,0.403 0.051,0.565 -0.269,0.565 -0.337,0 -0.404,0.175 -0.272,0.703 0.127,0.505 0.046,0.754 -0.285,0.881 -0.3,0.115 -0.403,0.364 -0.294,0.709 0.119,0.372 0.031,0.532 -0.293,0.532 -0.318,0 -0.411,0.16 -0.298,0.515 0.185,0.584 -0.579,2.309 -1.024,2.309 -0.16,0 -0.217,0.196 -0.125,0.435 0.092,0.239 0.042,0.684 -0.111,0.989 -0.153,0.305 -0.405,0.806 -0.56,1.115 -0.156,0.309 -0.283,0.753 -0.283,0.989 0,0.235 -0.127,0.427 -0.282,0.427 -0.156,0 -0.283,0.318 -0.283,0.706 0,0.389 -0.127,0.707 -0.282,0.707 -0.156,0 -0.283,0.317 -0.283,0.706 0,0.451 -0.159,0.706 -0.44,0.706 -0.247,0 -0.357,0.136 -0.249,0.309 0.172,0.279 -0.01,0.833 -0.756,2.3 -0.137,0.27 -0.25,0.683 -0.25,0.918 0,0.235 -0.173,0.428 -0.384,0.428 -0.258,0 -0.34,0.232 -0.25,0.706 0.079,0.412 0.004,0.706 -0.18,0.706 -0.174,0 -0.316,0.193 -0.316,0.428 0,0.235 -0.117,0.648 -0.261,0.918 -0.145,0.27 -0.334,0.721 -0.422,1.003 -0.088,0.281 -0.27,0.444 -0.404,0.361 -0.134,-0.082 -0.183,0.164 -0.11,0.547 0.077,0.405 0.001,0.698 -0.182,0.698 -0.174,0 -0.316,0.318 -0.316,0.706 0,0.389 -0.127,0.707 -0.282,0.707 -0.155,0 -0.283,0.317 -0.283,0.706 0,0.388 -0.127,0.706 -0.282,0.706 -0.155,0 -0.282,0.247 -0.282,0.548 0,0.302 -0.128,0.627 -0.283,0.723 -0.155,0.096 -0.282,0.421 -0.282,0.723 0,0.302 -0.128,0.548 -0.283,0.548 -0.155,0 -0.282,0.318 -0.282,0.707 0,0.388 -0.128,0.706 -0.283,0.706 -0.155,0 -0.282,0.318 -0.282,0.706 0,0.388 -0.128,0.706 -0.283,0.706 -0.155,0 -0.282,0.318 -0.282,0.706 0,0.389 -0.127,0.707 -0.283,0.707 -0.155,0 -0.282,0.254 -0.282,0.565 0,0.31 -0.127,0.565 -0.283,0.565 -0.155,0 -0.282,0.317 -0.282,0.706 0,0.388 -0.127,0.706 -0.283,0.706 -0.155,0 -0.282,0.318 -0.282,0.706 0,0.389 -0.127,0.706 -0.283,0.706 -0.155,0 -0.282,0.255 -0.282,0.565 0,0.311 -0.127,0.565 -0.283,0.565 -0.155,0 -0.282,0.311 -0.282,0.69 0,0.379 -0.127,0.768 -0.283,0.864 -0.155,0.096 -0.282,0.421 -0.282,0.723 0,0.301 -0.127,0.548 -0.283,0.548 -0.155,0 -0.282,0.318 -0.282,0.706 0,0.389 -0.127,0.707 -0.283,0.707 -0.155,0 -0.282,0.317 -0.282,0.706 0,0.388 -0.127,0.706 -0.283,0.706 -0.155,0 -0.282,0.254 -0.282,0.565 0,0.311 -0.127,0.565 -0.283,0.565 -0.155,0 -0.282,0.318 -0.282,0.706 0,0.389 -0.127,0.706 -0.283,0.706 -0.155,0 -0.282,0.318 -0.282,0.707 0,0.388 -0.127,0.706 -0.283,0.706 -0.155,0 -0.282,0.318 -0.282,0.706 0,0.388 -0.127,0.706 -0.283,0.706 -0.155,0 -0.282,0.318 -0.282,0.707 0,0.388 -0.127,0.706 -0.282,0.706 -0.156,0 -0.283,0.254 -0.283,0.565 0,0.31 -0.127,0.565 -0.282,0.565 -0.156,0 -0.283,0.317 -0.283,0.706 0,0.388 -0.127,0.706 -0.282,0.706 -0.156,0 -0.283,0.318 -0.283,0.706 0,0.389 -0.127,0.707 -0.282,0.707 -0.156,0 -0.283,0.254 -0.283,0.564 0,0.311 -0.127,0.565 -0.282,0.565 -0.156,0 -0.283,0.311 -0.283,0.69 0,0.379 -0.127,0.768 -0.282,0.864 -0.156,0.096 -0.283,0.421 -0.283,0.723 0,0.302 -0.127,0.548 -0.282,0.548 -0.156,0 -0.283,0.318 -0.283,0.707 0,0.388 -0.127,0.706 -0.282,0.706 -0.156,0 -0.283,0.318 -0.283,0.706 0,0.388 -0.137,0.706 -0.306,0.706 -0.168,0 -0.252,0.159 -0.186,0.353 0.066,0.194 -0.441,1.942 -1.128,3.884 -3.034,8.582 -2.947,8.609 4.021,1.228 2.325,-2.462 6.136,-6.448 8.47,-8.857 4.439,-4.584 6.274,-6.578 6.972,-7.575 0.397,-0.566 1.855,-2.108 9.678,-10.231 1.876,-1.949 3.983,-4.219 4.683,-5.044 2.268,-2.679 4.12,-4.667 10.296,-11.055 2.183,-2.257 4.859,-5.11 5.947,-6.339 3.068,-3.468 5.313,-5.869 9.645,-10.314 2.198,-2.256 4.358,-4.546 4.8,-5.089 0.442,-0.544 1.269,-1.459 1.838,-2.032 0.569,-0.574 1.212,-1.297 1.429,-1.607 0.478,-0.682 3.252,-3.637 8.392,-8.937 2.111,-2.178 4.602,-4.831 5.534,-5.896 2.884,-3.295 4.919,-5.471 9.588,-10.251 2.477,-2.536 4.578,-4.732 4.669,-4.879 0.156,-0.253 1.868,-2.155 6.346,-7.053 1.077,-1.178 3.81,-4.054 6.073,-6.39 2.263,-2.337 4.878,-5.128 5.81,-6.202 2.429,-2.799 4.812,-5.355 9.352,-10.026 2.192,-2.255 4.48,-4.666 5.085,-5.357 3.825,-4.368 6.366,-7.113 10.739,-11.596 2.197,-2.253 4.423,-4.605 4.946,-5.226 0.523,-0.622 1.439,-1.639 2.036,-2.26 l 1.084,-1.13 -38.937,-0.141 -38.938,-0.142 0.09,-0.847 c 0.049,-0.466 0.208,-0.968 0.353,-1.116 0.145,-0.148 0.263,-0.497 0.263,-0.777 0,-0.279 0.127,-0.508 0.283,-0.508 0.155,0 0.282,-0.318 0.282,-0.706 0,-0.389 0.127,-0.707 0.283,-0.707 0.155,0 0.282,-0.317 0.282,-0.706 0,-0.388 0.127,-0.706 0.283,-0.706 0.155,0 0.282,-0.254 0.282,-0.565 0,-0.311 0.127,-0.565 0.283,-0.565 0.155,0 0.282,-0.318 0.282,-0.706 0,-0.389 0.127,-0.706 0.283,-0.706 0.155,0 0.282,-0.318 0.282,-0.707 0,-0.388 0.127,-0.706 0.283,-0.706 0.155,0 0.282,-0.318 0.282,-0.706 0,-0.389 0.127,-0.706 0.283,-0.706 0.155,0 0.282,-0.318 0.282,-0.707 0,-0.388 0.127,-0.706 0.283,-0.706 0.155,0 0.282,-0.254 0.282,-0.565 0,-0.31 0.127,-0.565 0.283,-0.565 0.155,0 0.282,-0.318 0.282,-0.706 0,-0.388 0.127,-0.706 0.283,-0.706 0.155,0 0.282,-0.318 0.282,-0.706 0,-0.389 0.127,-0.707 0.282,-0.707 0.156,0 0.283,-0.254 0.283,-0.565 0,-0.31 0.127,-0.565 0.282,-0.565 0.156,0 0.283,-0.254 0.283,-0.564 0,-0.311 0.127,-0.565 0.282,-0.565 0.156,0 0.283,-0.382 0.283,-0.848 0,-0.466 0.127,-0.847 0.282,-0.847 0.156,0 0.283,-0.191 0.283,-0.424 0,-0.233 0.127,-0.424 0.282,-0.424 0.156,0 0.283,-0.381 0.283,-0.847 0,-0.466 0.127,-0.848 0.282,-0.848 0.156,0 0.283,-0.254 0.283,-0.565 0,-0.31 0.127,-0.565 0.282,-0.565 0.156,0 0.283,-0.254 0.283,-0.565 0,-0.31 0.127,-0.565 0.282,-0.565 0.156,0 0.283,-0.381 0.283,-0.847 0,-0.466 0.127,-0.848 0.282,-0.848 0.156,0 0.283,-0.254 0.283,-0.565 0,-0.31 0.127,-0.564 0.282,-0.564 0.156,0 0.283,-0.382 0.283,-0.848 0,-0.466 0.127,-0.847 0.282,-0.847 0.156,0 0.283,-0.255 0.283,-0.565 0,-0.311 0.127,-0.565 0.282,-0.565 0.156,0 0.283,-0.382 0.283,-0.848 0,-0.466 0.127,-0.847 0.282,-0.847 0.156,0 0.283,-0.255 0.283,-0.565 0,-0.311 0.127,-0.565 0.282,-0.565 0.155,0 0.283,-0.311 0.283,-0.69 0,-0.379 0.127,-0.768 0.282,-0.864 0.155,-0.096 0.283,-0.421 0.283,-0.723 0,-0.301 0.127,-0.548 0.282,-0.548 0.155,0 0.283,-0.254 0.283,-0.565 0,-0.311 0.142,-0.565 0.315,-0.565 0.177,0 0.25,-0.25 0.166,-0.57 -0.082,-0.313 0.039,-0.757 0.268,-0.986 0.229,-0.23 0.337,-0.546 0.239,-0.704 -0.097,-0.157 0.026,-0.364 0.273,-0.459 0.28,-0.107 0.389,-0.365 0.289,-0.681 -0.088,-0.279 -0.029,-0.589 0.133,-0.689 0.162,-0.1 0.294,-0.432 0.294,-0.739 0,-0.306 0.198,-0.633 0.44,-0.726 0.242,-0.093 0.371,-0.348 0.287,-0.567 -0.084,-0.218 0.04,-0.471 0.275,-0.562 0.257,-0.098 0.364,-0.363 0.268,-0.665 -0.088,-0.276 0.044,-0.705 0.292,-0.953 0.248,-0.249 0.372,-0.581 0.274,-0.738 -0.097,-0.158 0.026,-0.365 0.273,-0.46 0.28,-0.107 0.389,-0.365 0.289,-0.68 -0.089,-0.279 -0.029,-0.59 0.133,-0.69 0.162,-0.1 0.294,-0.432 0.294,-0.738 0,-0.307 0.176,-0.625 0.392,-0.708 0.227,-0.087 0.333,-0.382 0.25,-0.698 -0.094,-0.358 10e-4,-0.546 0.274,-0.546 0.293,0 0.378,-0.211 0.283,-0.707 -0.079,-0.412 -0.004,-0.706 0.18,-0.706 0.174,0 0.316,-0.258 0.316,-0.574 0,-0.315 0.176,-0.641 0.392,-0.724 0.217,-0.083 0.332,-0.382 0.258,-0.666 -0.074,-0.283 0.004,-0.6 0.173,-0.704 0.168,-0.105 0.307,-0.423 0.307,-0.708 0,-0.285 0.188,-0.59 0.419,-0.679 0.237,-0.091 0.347,-0.348 0.253,-0.593 -0.093,-0.242 0.014,-0.501 0.245,-0.59 0.262,-0.1 0.363,-0.408 0.279,-0.849 -0.076,-0.401 0.001,-0.692 0.183,-0.692 0.174,0 0.316,-0.259 0.316,-0.574 0,-0.316 0.176,-0.642 0.392,-0.725 0.227,-0.087 0.332,-0.381 0.25,-0.697 -0.079,-0.301 -0.001,-0.547 0.172,-0.547 0.174,0 0.316,-0.318 0.316,-0.706 0,-0.388 0.127,-0.706 0.282,-0.706 0.155,0 0.283,-0.258 0.283,-0.574 0,-0.316 0.176,-0.642 0.392,-0.725 0.216,-0.083 0.332,-0.381 0.258,-0.665 -0.074,-0.283 0.003,-0.6 0.172,-0.705 0.169,-0.104 0.307,-0.423 0.307,-0.708 0,-0.284 0.181,-0.587 0.402,-0.672 0.246,-0.094 0.343,-0.38 0.25,-0.736 -0.087,-0.331 -0.017,-0.582 0.163,-0.582 0.173,0 0.315,-0.318 0.315,-0.707 0,-0.388 0.128,-0.706 0.283,-0.706 0.155,0 0.282,-0.192 0.282,-0.427 0,-0.236 0.127,-0.681 0.283,-0.989 0.155,-0.309 0.409,-0.814 0.565,-1.122 0.155,-0.309 0.282,-0.754 0.282,-0.989 0,-0.235 0.127,-0.428 0.283,-0.428 0.155,0 0.282,-0.317 0.282,-0.706 0,-0.388 0.127,-0.706 0.283,-0.706 0.155,0 0.282,-0.318 0.282,-0.706 0,-0.389 0.127,-0.707 0.283,-0.707 0.155,0 0.282,-0.254 0.282,-0.565 0,-0.31 0.127,-0.564 0.283,-0.564 0.155,0 0.282,-0.318 0.282,-0.707 0,-0.388 0.127,-0.706 0.283,-0.706 0.155,0 0.282,-0.318 0.282,-0.706 0,-0.389 0.127,-0.706 0.283,-0.706 0.155,0 0.282,-0.318 0.282,-0.707 0,-0.388 0.127,-0.706 0.283,-0.706 0.155,0 0.282,-0.247 0.282,-0.548 0,-0.302 0.127,-0.627 0.283,-0.723 0.155,-0.096 0.282,-0.421 0.282,-0.723 0,-0.301 0.127,-0.548 0.283,-0.548 0.155,0 0.282,-0.318 0.282,-0.706 0,-0.389 0.127,-0.707 0.283,-0.707 0.155,0 0.282,-0.317 0.282,-0.706 0,-0.388 0.127,-0.706 0.283,-0.706 0.155,0 0.282,-0.192 0.282,-0.428 0,-0.414 0.118,-0.714 0.803,-2.04 0.18,-0.347 0.327,-0.824 0.327,-1.059 0,-0.235 0.127,-0.428 0.282,-0.428 0.156,0 0.283,-0.318 0.283,-0.706 0,-0.388 0.127,-0.706 0.282,-0.706 0.156,0 0.283,-0.318 0.283,-0.706 0,-0.389 0.127,-0.707 0.282,-0.707 0.156,0 0.283,-0.254 0.283,-0.565 0,-0.31 0.127,-0.565 0.282,-0.565 0.156,0 0.283,-0.317 0.283,-0.706 0,-0.388 0.127,-0.706 0.282,-0.706 0.156,0 0.283,-0.318 0.283,-0.706 0,-0.389 0.127,-0.706 0.282,-0.706 0.156,0 0.283,-0.318 0.283,-0.707 0,-0.388 0.127,-0.706 0.282,-0.706 0.156,0 0.283,-0.254 0.283,-0.565 0,-0.311 0.127,-0.565 0.282,-0.565 0.156,0 0.283,-0.318 0.283,-0.706 0,-0.388 0.127,-0.706 0.282,-0.706 0.156,0 0.283,-0.318 0.283,-0.706 0,-0.389 0.127,-0.707 0.282,-0.707 0.156,0 0.283,-0.254 0.283,-0.565 0,-0.31 0.127,-0.565 0.282,-0.565 0.156,0 0.283,-0.31 0.283,-0.689 0,-0.379 0.127,-0.768 0.282,-0.864 0.155,-0.096 0.283,-0.422 0.283,-0.723 0,-0.302 0.127,-0.549 0.282,-0.549 0.155,0 0.283,-0.317 0.283,-0.706 0,-0.388 0.127,-0.706 0.282,-0.706 0.155,0 0.283,-0.307 0.283,-0.683 0,-0.375 0.149,-0.732 0.332,-0.793 0.473,-0.158 0.012,-0.787 -0.561,-0.766 -0.263,0.01 -0.732,0.124 -1.043,0.255"
         id="path0" />
      <path
         style="fill:#047ccc;fill-rule:evenodd;stroke:none"
         inkscape:connector-curvature="0"
         d="M 97.938,48.114 C 73.887,72.223 54.082,92.076 53.927,92.232 c -1.966,1.966 -33.532,33.552 -34.331,34.353 -0.601,0.602 -4.049,4.017 -7.661,7.589 -5.436,5.376 -6.567,6.63 -6.564,7.276 0.003,0.658 4.192,4.969 26.483,27.259 14.564,14.562 43.631,43.639 64.595,64.615 20.964,20.976 38.134,38.108 38.157,38.071 0.023,-0.037 0.327,-0.541 0.675,-1.12 0.348,-0.579 0.72,-1.041 0.826,-1.026 0.665,0.093 0.899,-0.137 0.899,-0.887 0,-0.467 0.127,-0.848 0.282,-0.848 0.156,0 0.283,-0.254 0.283,-0.565 0,-0.311 0.138,-0.565 0.306,-0.565 0.188,0 0.27,-0.467 0.212,-1.2 -0.084,-1.064 -0.022,-1.211 0.541,-1.291 0.494,-0.07 0.636,-0.275 0.636,-0.918 0,-0.456 0.127,-0.828 0.282,-0.828 0.155,0 0.283,-0.254 0.283,-0.565 0,-0.311 0.138,-0.565 0.307,-0.565 0.193,0 0.272,-0.503 0.212,-1.342 -0.086,-1.211 -0.034,-1.35 0.54,-1.432 0.494,-0.07 0.635,-0.275 0.635,-0.918 0,-0.455 0.128,-0.828 0.283,-0.828 0.155,0 0.282,-0.254 0.282,-0.565 0,-0.311 0.145,-0.565 0.322,-0.565 0.22,0 0.269,-0.446 0.155,-1.412 -0.163,-1.374 -0.147,-1.413 0.562,-1.413 0.673,0 0.718,-0.075 0.574,-0.965 -0.129,-0.795 -0.036,-1.056 0.528,-1.479 0.376,-0.283 0.684,-0.739 0.684,-1.013 0,-0.273 0.127,-0.497 0.283,-0.497 0.155,0 0.282,-0.382 0.282,-0.848 0,-0.466 0.139,-0.847 0.308,-0.847 0.202,0 0.241,-0.387 0.116,-1.13 -0.201,-1.191 0.282,-1.663 0.507,-0.495 0.088,0.46 0.133,0.382 0.161,-0.282 0.021,-0.505 0.165,-0.918 0.321,-0.918 0.155,0 0.282,-0.254 0.282,-0.565 0,-0.311 0.127,-0.565 0.283,-0.565 0.155,0 0.282,-0.382 0.282,-0.848 0,-0.466 0.141,-0.847 0.314,-0.847 0.204,0 0.251,-0.337 0.133,-0.967 -0.1,-0.531 -0.06,-1.042 0.089,-1.134 0.149,-0.092 0.327,0.121 0.394,0.472 0.09,0.468 0.133,0.393 0.162,-0.278 0.021,-0.505 0.165,-0.918 0.321,-0.918 0.155,0 0.282,-0.254 0.282,-0.565 0,-0.311 0.117,-0.565 0.26,-0.565 0.143,0 0.352,-0.858 0.464,-1.907 0.14,-1.32 0.365,-2.047 0.728,-2.363 0.289,-0.252 0.525,-0.792 0.525,-1.201 0,-0.409 0.128,-0.744 0.283,-0.744 0.155,0 0.282,-0.254 0.282,-0.565 0,-0.31 0.128,-0.564 0.283,-0.564 0.155,0 0.282,-0.417 0.282,-0.927 0,-0.602 0.198,-1.069 0.565,-1.333 0.369,-0.266 0.565,-0.732 0.565,-1.339 0,-1.117 0.687,-0.382 -15.218,-16.284 -12.058,-12.056 -13.289,-13.287 -34.428,-34.426 -6.914,-6.914 -14.335,-14.334 -16.491,-16.49 -2.157,-2.155 -6.982,-7.014 -10.724,-10.798 l -6.802,-6.878 4.473,-4.522 c 2.46,-2.487 18.931,-18.968 36.602,-36.624 l 32.13,-32.103 0.003,-31.991 0.003,-31.992 -0.776,0.021 c -0.646,0.018 -8.161,7.422 -44.506,43.856 M 257.167,5.309 c -1.784,1.748 -4.068,4.381 -3.925,4.525 0.158,0.157 2.973,-2.791 2.973,-3.114 0,-0.123 0.162,-0.223 0.361,-0.223 0.199,0 0.545,-0.254 0.769,-0.565 0.82,-1.138 2.26,-0.768 2.26,0.582 0,0.692 0.111,1.077 0.282,0.972 0.542,-0.335 0.3,-1.845 -0.411,-2.555 -0.905,-0.905 -1.019,-0.886 -2.309,0.378 m 8.175,7.049 c 0.043,0.617 -0.082,0.796 -0.602,0.87 -0.569,0.081 -0.643,0.229 -0.565,1.13 0.063,0.716 -0.019,1.016 -0.263,0.967 -0.194,-0.039 -0.353,0.12 -0.353,0.353 0,0.233 -0.127,0.424 -0.282,0.424 -0.156,0 -0.283,0.254 -0.283,0.565 0,0.31 -0.127,0.565 -0.282,0.565 -0.156,0 -0.283,0.381 -0.283,0.847 0,0.466 -0.141,0.848 -0.314,0.848 -0.205,0 -0.25,0.34 -0.128,0.988 0.147,0.784 0.095,0.989 -0.251,0.989 -0.24,0 -0.437,0.191 -0.437,0.424 0,0.233 -0.127,0.423 -0.282,0.423 -0.155,0 -0.283,0.191 -0.283,0.424 0,0.233 -0.127,0.424 -0.282,0.424 -0.155,0 -0.283,0.381 -0.283,0.847 0,0.466 -0.127,0.848 -0.282,0.848 -0.155,0 -0.282,0.243 -0.282,0.541 0,0.298 -0.159,0.606 -0.354,0.684 -0.211,0.085 -0.154,0.152 0.142,0.165 0.797,0.036 0.594,0.87 -0.212,0.87 -0.597,0 -0.706,0.131 -0.706,0.847 0,0.466 -0.128,0.848 -0.283,0.848 -0.155,0 -0.282,0.254 -0.282,0.565 0,0.31 -0.144,0.565 -0.319,0.565 -0.22,0 -0.26,0.443 -0.13,1.427 0.144,1.087 0.102,1.416 -0.175,1.379 -0.853,-0.113 -1.071,0.063 -1.071,0.866 0,0.466 -0.127,0.847 -0.283,0.847 -0.155,0 -0.282,0.255 -0.282,0.565 0,0.311 -0.144,0.565 -0.319,0.565 -0.22,0 -0.26,0.444 -0.13,1.428 0.169,1.272 0.135,1.418 -0.316,1.342 -0.387,-0.066 -0.527,0.13 -0.595,0.832 -0.049,0.505 -0.208,0.918 -0.353,0.918 -0.146,0 -0.265,0.254 -0.265,0.565 0,0.311 -0.127,0.565 -0.282,0.565 -0.156,0 -0.285,0.413 -0.287,0.918 -0.003,0.697 -0.07,0.816 -0.278,0.494 -0.208,-0.321 -0.275,-0.202 -0.278,0.495 -0.003,0.505 -0.132,0.918 -0.287,0.918 -0.155,0 -0.283,0.48 -0.283,1.067 0,0.744 -0.171,1.192 -0.565,1.475 -0.31,0.224 -0.565,0.634 -0.565,0.91 0,0.276 -0.127,0.503 -0.282,0.503 -0.155,0 -0.283,0.381 -0.283,0.847 0,0.466 -0.127,0.848 -0.282,0.848 -0.155,0 -0.282,0.48 -0.282,1.067 0,0.744 -0.172,1.191 -0.565,1.475 -0.311,0.224 -0.565,0.633 -0.565,0.91 0,0.276 -0.128,0.502 -0.283,0.502 -0.155,0 -0.282,0.382 -0.282,0.848 0,0.466 -0.128,0.847 -0.283,0.847 -0.155,0 -0.282,0.509 -0.282,1.13 0,0.622 -0.127,1.13 -0.283,1.13 -0.804,0 2.845,3.728 41.667,42.569 23.072,23.083 41.949,42.07 41.949,42.192 0,0.123 -16.398,16.615 -36.441,36.649 l -36.44,36.426 v 31.793 c 0,30.318 0.041,32.688 0.569,32.688 0.17,0 16.855,-16.315 19.842,-19.403 0.274,-0.282 26.81,-26.855 58.969,-59.051 39.226,-39.27 58.473,-58.727 58.473,-59.111 0,-0.675 -129.376,-130.232 -130.05,-130.232 -0.287,0 -0.407,0.251 -0.371,0.776 m -17.261,2.808 c -1.6,1.64 -2.849,3.042 -2.776,3.114 0.134,0.134 6.107,-5.723 6.107,-5.989 0,-0.429 -0.696,0.172 -3.331,2.875 m -5.349,5.828 c -0.502,0.494 -1.202,1.166 -1.554,1.493 -1.615,1.495 -3.821,4.067 -3.491,4.067 0.188,0 6.381,-6.174 6.381,-6.361 0,-0.327 -0.488,-0.034 -1.336,0.801 m -10.166,10.573 c -1.432,1.5 -2.548,2.782 -2.481,2.85 0.124,0.124 5.508,-5.221 5.508,-5.469 0,-0.425 -0.693,0.175 -3.027,2.619 m -6.86,7.44 c -3.626,3.867 -4.8,5.194 -4.801,5.425 -0.001,0.254 5.901,-5.815 7.025,-7.223 1.079,-1.352 -0.366,-0.184 -2.224,1.798 m -9.265,10.057 c -1.755,1.795 -3.131,3.323 -3.058,3.396 0.134,0.134 6.673,-6.287 6.673,-6.553 0,-0.432 -0.723,0.199 -3.615,3.157 m -7.362,7.879 c -1.454,1.464 -2.541,2.662 -2.416,2.662 0.126,0 0.744,-0.501 1.373,-1.113 0.63,-0.612 1.812,-1.748 2.628,-2.524 0.816,-0.776 1.483,-1.483 1.483,-1.571 0,-0.43 -0.636,0.097 -3.068,2.546 m -8.158,8.516 c -1.281,1.34 -2.276,2.49 -2.211,2.554 0.124,0.125 4.962,-4.627 4.962,-4.873 0,-0.429 -0.647,0.116 -2.751,2.319 m -7.418,8.023 c -1.321,1.404 -2.56,2.724 -2.754,2.933 -1.632,1.759 0.263,0.133 2.613,-2.243 1.631,-1.649 2.966,-3.059 2.966,-3.133 0,-0.426 -0.676,0.158 -2.825,2.443 m -9.264,10.046 c -1.599,1.64 -2.849,3.041 -2.776,3.114 0.134,0.134 6.108,-5.724 6.108,-5.989 0,-0.429 -0.697,0.172 -3.332,2.875 m -6.771,7.313 c -1.284,1.309 -2.221,2.379 -2.083,2.379 0.355,0 4.559,-4.161 4.559,-4.513 0,-0.405 0.101,-0.492 -2.476,2.134 m -8.457,8.81 c -3.58,3.745 -3.607,4.166 -0.036,0.576 2.933,-2.948 3.526,-3.623 3.164,-3.603 -0.135,0.008 -1.543,1.37 -3.128,3.027 m -7.905,8.483 c -4.198,4.413 -4.713,5.275 -0.783,1.312 3.715,-3.747 4.273,-4.368 3.907,-4.348 -0.136,0.007 -1.541,1.373 -3.124,3.036 m -6.304,6.862 c -0.388,0.47 -1.759,1.944 -3.047,3.276 -1.288,1.333 -2.28,2.483 -2.207,2.557 0.24,0.239 6.102,-5.965 6.102,-6.458 0,-0.365 -0.075,-0.311 -0.848,0.625 m 137.288,3.083 c 0,0.311 0.128,0.565 0.283,0.565 0.155,0 0.282,-0.254 0.282,-0.565 0,-0.311 -0.127,-0.565 -0.282,-0.565 -0.155,0 -0.283,0.254 -0.283,0.565 m -3.813,4.54 c -0.311,0.301 -1.247,1.189 -2.081,1.973 -0.834,0.783 -1.451,1.49 -1.372,1.569 0.08,0.08 1.138,-0.816 2.351,-1.991 1.214,-1.175 2.085,-2.128 1.937,-2.118 -0.149,0.01 -0.524,0.265 -0.835,0.567 m -143.294,2.968 c -1.594,1.619 -2.786,2.944 -2.647,2.944 0.273,0 5.969,-5.507 5.969,-5.771 0,-0.438 -0.658,0.122 -3.322,2.827 m 133.76,7.208 c -1.36,1.399 -2.472,2.676 -2.472,2.839 0,0.163 1.144,-0.886 2.543,-2.332 2.122,-2.195 2.888,-3.143 2.471,-3.062 -0.039,0.007 -1.183,1.157 -2.542,2.555 m -141.655,1.035 c -1.275,1.346 -2.269,2.495 -2.21,2.554 0.118,0.118 4.953,-4.648 4.953,-4.883 0,-0.432 -0.649,0.119 -2.743,2.329 m 134.439,6.76 c -1.599,1.64 -2.843,3.047 -2.764,3.125 0.167,0.168 5.813,-5.578 5.813,-5.916 0,-0.344 0.063,-0.401 -3.049,2.791 m -142.148,1.518 c -3.661,3.843 -3.591,4.145 0.104,0.45 1.652,-1.652 3.003,-3.068 3.003,-3.148 0,-0.44 -0.687,0.157 -3.107,2.698 m 133.943,7.23 c -1.451,1.476 -2.573,2.748 -2.493,2.828 0.129,0.129 3.13,-2.769 4.969,-4.8 1.703,-1.88 -0.102,-0.442 -2.476,1.972 m -141.006,0.397 c -0.699,0.769 -2.068,2.242 -3.043,3.273 -0.975,1.031 -1.713,1.934 -1.64,2.007 0.073,0.073 0.901,-0.676 1.84,-1.664 4.139,-4.359 4.742,-5.054 4.361,-5.03 -0.136,0.008 -0.818,0.644 -1.518,1.414 m 133.421,7.701 c -0.651,0.649 -1.591,1.532 -2.09,1.962 -0.498,0.43 -0.831,0.856 -0.741,0.947 0.09,0.09 0.604,-0.262 1.143,-0.783 0.539,-0.52 1.214,-1.138 1.502,-1.372 0.834,-0.68 1.917,-1.977 1.631,-1.955 -0.144,0.011 -0.794,0.552 -1.445,1.201 m -142.601,2.272 c -3.055,3.118 -4.112,4.328 -3.118,3.569 0.764,-0.584 6.366,-6.174 6.366,-6.353 0,-0.421 -0.681,0.164 -3.248,2.784 m 137.076,3.63 c -0.563,0.704 -0.678,1.304 -0.141,0.735 0.751,-0.797 1.118,-1.361 0.882,-1.357 -0.136,0.002 -0.469,0.282 -0.741,0.622 m -141.737,1.634 c 0,0.31 0.127,0.565 0.282,0.565 0.155,0 0.283,-0.255 0.283,-0.565 0,-0.311 -0.128,-0.565 -0.283,-0.565 -0.155,0 -0.282,0.254 -0.282,0.565 m 138.463,1.88 c -1.296,1.32 -2.285,2.471 -2.198,2.558 0.174,0.174 4.695,-4.434 4.695,-4.785 0,-0.324 0.043,-0.362 -2.497,2.227 m -7.332,7.918 c -1.599,1.641 -2.843,3.047 -2.764,3.126 0.167,0.168 5.813,-5.578 5.813,-5.916 0,-0.344 0.063,-0.402 -3.049,2.79 m -8.487,9.031 c -1.606,1.632 -2.855,3.031 -2.776,3.111 0.08,0.08 1.203,-0.925 2.497,-2.232 3.071,-3.104 3.778,-3.894 3.461,-3.867 -0.144,0.013 -1.576,1.357 -3.182,2.988 m -7.856,8.419 c -0.956,0.98 -1.91,1.843 -2.119,1.917 -0.21,0.075 -0.294,0.23 -0.188,0.344 0.106,0.115 0.395,0.037 0.642,-0.173 1.754,-1.493 4.044,-3.921 3.669,-3.891 -0.147,0.012 -1.049,0.823 -2.004,1.803 m -5.466,5.821 c -0.544,0.617 -1.974,2.139 -3.178,3.382 -1.204,1.243 -2.19,2.391 -2.19,2.551 0,0.35 4.803,-4.558 6.462,-6.603 0.798,-0.985 -0.145,-0.407 -1.094,0.67 m -10.151,10.98 c -1.621,1.658 -3.005,3.186 -3.075,3.395 -0.069,0.209 0.812,-0.572 1.959,-1.736 3.395,-3.444 4.316,-4.449 4.186,-4.565 -0.067,-0.06 -1.449,1.247 -3.07,2.906 m -8.435,8.97 c -1.6,1.64 -2.849,3.042 -2.776,3.115 0.119,0.119 2.651,-2.343 5.245,-5.1 2.275,-2.418 0.186,-0.739 -2.469,1.985 m -7.907,8.476 c -1.288,1.331 -2.282,2.48 -2.209,2.552 0.072,0.072 0.68,-0.432 1.351,-1.122 3.002,-3.081 3.722,-3.885 3.469,-3.869 -0.149,0.01 -1.324,1.107 -2.611,2.439 m -6.212,6.531 c -4.22,4.497 -5.148,5.538 -5.148,5.772 0,0.136 0.73,-0.526 1.624,-1.471 0.893,-0.946 2.387,-2.515 3.319,-3.487 2.06,-2.15 2.546,-2.744 2.224,-2.721 -0.136,0.01 -1.044,0.868 -2.019,1.907 m -9.058,9.843 c -1.451,1.475 -2.568,2.753 -2.481,2.84 0.175,0.175 5.261,-4.991 5.261,-5.344 0,-0.331 0.065,-0.39 -2.78,2.504 m -8.475,9.039 c -1.451,1.476 -2.573,2.749 -2.493,2.828 0.132,0.132 4.313,-3.917 5.237,-5.071 1.079,-1.348 -0.408,-0.132 -2.744,2.243 m -8.192,8.757 c -1.296,1.32 -2.29,2.466 -2.21,2.546 0.131,0.131 2.608,-2.252 4.404,-4.235 1.606,-1.774 -0.036,-0.51 -2.194,1.689 m -6.763,7.108 c -3.188,3.343 -4.016,4.299 -4.016,4.637 0,0.158 0.349,-0.118 0.776,-0.613 0.428,-0.496 1.953,-2.099 3.39,-3.563 1.437,-1.464 2.613,-2.727 2.613,-2.807 0,-0.422 -0.643,0.124 -2.763,2.346 m -9.949,3.3 c 0,0.233 0.127,0.424 0.283,0.424 0.155,0 0.282,-0.191 0.282,-0.424 0,-0.233 -0.127,-0.424 -0.282,-0.424 -0.156,0 -0.283,0.191 -0.283,0.424 m -1.483,3.975 c -0.116,0.118 -0.212,0.601 -0.212,1.072 0,0.613 0.087,0.77 0.305,0.553 0.168,-0.168 0.263,-0.65 0.212,-1.073 -0.051,-0.422 -0.188,-0.671 -0.305,-0.552 m 3.742,1.242 c -0.699,0.772 -1.429,1.407 -1.623,1.412 -0.194,0.005 -0.353,0.137 -0.353,0.292 0,0.474 -1.34,0.315 -1.53,-0.182 -0.098,-0.255 -0.248,-0.394 -0.333,-0.31 -0.327,0.328 0.618,1.34 1.252,1.34 0.629,0 4.001,-3.139 4.001,-3.725 0,-0.368 -0.078,-0.304 -1.414,1.173"
         id="path1" />
      <path
         style="fill:#9497d3;fill-rule:evenodd;stroke:none"
         inkscape:connector-curvature="0"
         d="m 255.932,7.645 c 0,0.166 -0.644,0.929 -1.431,1.695 -0.787,0.767 -1.323,1.394 -1.191,1.394 0.289,0 3.187,-2.897 3.187,-3.186 0,-0.112 -0.127,-0.203 -0.282,-0.203 -0.156,0 -0.283,0.135 -0.283,0.3 m -6.079,6.285 c -0.313,0.34 -0.882,1.063 -1.263,1.607 -0.381,0.544 -1.315,1.599 -2.076,2.344 -0.76,0.746 -1.322,1.416 -1.249,1.49 0.175,0.175 5.582,-5.461 5.582,-5.819 0,-0.435 -0.375,-0.293 -0.994,0.378 m -7.949,8.88 c -1.063,1.203 -2.299,2.542 -2.748,2.974 -0.448,0.432 -0.757,0.845 -0.686,0.916 0.171,0.171 4.491,-4.301 5.121,-5.302 0.805,-1.277 0.353,-0.899 -1.687,1.412 m -7.488,7.69 c -0.052,0.151 -1.279,1.55 -2.727,3.108 -3.184,3.427 -3.135,3.718 0.085,0.502 2.374,-2.37 3.554,-3.884 3.028,-3.884 -0.16,0 -0.334,0.124 -0.386,0.274 m -7.691,8.554 c -0.886,0.971 -2.369,2.56 -3.297,3.531 -0.927,0.971 -1.581,1.765 -1.453,1.765 0.302,0 5.426,-5.213 5.426,-5.52 0,-0.129 0.277,-0.528 0.614,-0.888 0.338,-0.36 0.548,-0.654 0.467,-0.654 -0.081,0 -0.872,0.795 -1.757,1.766 m -11.4,11.664 c -0.505,0.528 -0.917,1.123 -0.916,1.322 0.002,0.365 2.218,-1.719 2.244,-2.111 0.028,-0.424 -0.43,-0.152 -1.328,0.789 m -6.78,7.348 c -0.815,0.84 -1.483,1.599 -1.483,1.686 0,0.087 -0.254,0.432 -0.565,0.765 -0.311,0.334 -0.565,0.72 -0.565,0.859 0,0.139 0.477,-0.251 1.06,-0.866 2.029,-2.143 3.46,-3.746 3.46,-3.879 0,-0.372 -0.563,0.051 -1.907,1.435 m -8.859,9.39 c -1.636,1.789 -2.528,2.96 -2.371,3.117 0.186,0.186 3.528,-3.423 3.53,-3.812 0.001,-0.181 0.161,-0.394 0.356,-0.472 0.214,-0.087 0.229,-0.151 0.038,-0.165 -0.173,-0.012 -0.872,0.587 -1.553,1.332 m -7.224,7.897 c -0.932,0.886 -2.199,2.613 -1.917,2.613 0.184,0 0.886,-0.714 2.466,-2.506 0.961,-1.09 0.568,-1.167 -0.549,-0.107 m -9.058,9.588 c -0.816,0.869 -1.481,1.721 -1.479,1.893 0.003,0.172 0.765,-0.478 1.695,-1.444 0.93,-0.966 1.691,-1.824 1.691,-1.907 0,-0.406 -0.556,0.019 -1.907,1.458 m -7.345,7.91 c -0.815,0.869 -1.483,1.772 -1.483,2.007 0,0.299 0.175,0.224 0.587,-0.253 0.323,-0.373 1.086,-1.211 1.695,-1.862 0.61,-0.652 1.108,-1.255 1.108,-1.342 0,-0.415 -0.547,0.002 -1.907,1.45 m -8.167,8.775 c -0.752,0.739 -1.557,1.602 -1.79,1.916 -0.233,0.315 -0.615,0.815 -0.848,1.112 -0.867,1.104 0.372,0.073 1.964,-1.634 2.622,-2.813 3.081,-3.762 0.674,-1.394 m -8.271,8.994 c -0.963,1.025 -1.686,1.929 -1.605,2.01 0.132,0.132 2.099,-1.798 3.351,-3.288 1.159,-1.379 -0.143,-0.426 -1.746,1.278 m -7.855,8.179 c -0.661,0.684 -1.201,1.374 -1.201,1.533 0,0.159 -0.127,0.289 -0.283,0.289 -0.155,0 -0.28,0.159 -0.278,0.354 0.003,0.194 0.765,-0.438 1.695,-1.404 0.93,-0.967 1.691,-1.825 1.691,-1.907 0,-0.374 -0.515,-0.014 -1.624,1.135 m 61.652,-1.002 c -0.096,0.155 -0.135,0.313 -0.087,0.35 0.419,0.325 78.181,0.305 78.056,-0.02 -0.079,-0.207 -0.144,-0.43 -0.144,-0.495 0,-0.272 -77.656,-0.108 -77.825,0.165 m 75.464,3.43 c -1.032,1.116 -1.823,2.085 -1.756,2.151 0.165,0.166 3.269,-2.96 3.269,-3.292 0,-0.146 0.159,-0.322 0.354,-0.391 0.194,-0.069 0.276,-0.21 0.182,-0.312 -0.094,-0.103 -1.016,0.727 -2.049,1.844 m -144.065,5.157 c -0.878,0.843 -1.597,1.671 -1.597,1.84 0,0.169 -0.096,0.307 -0.214,0.307 -0.118,0 -0.39,0.286 -0.605,0.636 l -0.391,0.635 0.654,-0.565 c 0.36,-0.31 1.109,-1.064 1.665,-1.674 0.555,-0.61 1.309,-1.413 1.676,-1.783 1.376,-1.392 0.341,-0.866 -1.188,0.604 m 135.308,4.155 c -1.206,1.26 -2.13,2.352 -2.055,2.428 0.171,0.171 2.918,-2.596 3.789,-3.816 0.976,-1.367 0.66,-1.115 -1.734,1.388 m -144.744,5.774 c -0.66,0.685 -1.2,1.375 -1.2,1.534 0,0.159 -0.114,0.289 -0.252,0.289 -0.139,0 -0.337,0.219 -0.44,0.487 -0.136,0.354 0.027,0.296 0.592,-0.212 1.202,-1.08 2.909,-2.935 2.917,-3.171 0.016,-0.443 -0.456,-0.129 -1.617,1.073 m 138.026,1.469 c -1.698,1.78 -2.104,2.331 -1.717,2.331 0.418,0 2.604,-2.271 2.604,-2.705 0,-0.221 0.113,-0.402 0.252,-0.402 0.139,0 0.325,-0.191 0.415,-0.424 0.25,-0.652 0.11,-0.544 -1.554,1.2 m -145.381,6.59 c -1.618,1.845 -2.26,2.736 -1.613,2.238 1.458,-1.122 3.095,-3.002 2.767,-3.177 -0.124,-0.066 -0.643,0.357 -1.154,0.939 m 137.099,2.255 c -1.516,1.562 -2.687,2.91 -2.602,2.996 0.152,0.152 3.296,-2.916 3.296,-3.217 0,-0.084 0.223,-0.362 0.495,-0.616 0.805,-0.754 1.875,-2.005 1.716,-2.005 -0.082,0 -1.389,1.279 -2.905,2.842 m -145.28,6.374 c -0.661,0.673 -1.201,1.361 -1.201,1.529 0,0.168 -0.127,0.227 -0.282,0.131 -0.156,-0.096 -0.283,0.024 -0.283,0.266 0,0.63 0.025,0.613 1.78,-1.244 1.821,-1.926 1.808,-2.54 -0.014,-0.682 m 137.247,2.252 c -1.126,1.18 -1.984,2.209 -1.907,2.286 0.186,0.187 3.29,-2.923 3.29,-3.296 0,-0.158 0.113,-0.288 0.252,-0.288 0.139,0 0.325,-0.191 0.415,-0.424 0.256,-0.667 0.121,-0.554 -2.05,1.722 m -144.494,5.648 c -1.025,1.045 -1.864,2.084 -1.864,2.309 0,0.251 0.3,0.083 0.777,-0.436 0.428,-0.465 1.326,-1.444 1.997,-2.177 1.891,-2.064 1.179,-1.827 -0.91,0.304 m 135.589,3.812 c -0.893,0.945 -1.555,1.787 -1.47,1.872 0.18,0.18 3.283,-2.983 3.283,-3.346 0,-0.411 -0.132,-0.304 -1.813,1.474 m -139.147,0.379 c 0,0.262 0.241,0.445 0.588,0.445 0.688,0 0.591,-0.66 -0.118,-0.798 -0.278,-0.054 -0.47,0.09 -0.47,0.353 m 132.24,7.088 c -1.742,1.853 -2.397,3.086 -0.961,1.81 1.408,-1.252 3.257,-3.651 2.813,-3.651 -0.066,0 -0.899,0.829 -1.852,1.841 m -8.217,8.77 c -1.437,1.486 -2.543,2.772 -2.457,2.858 0.146,0.145 1.911,-1.59 3.575,-3.512 0.388,-0.449 0.948,-1.093 1.244,-1.432 1.363,-1.559 -0.001,-0.354 -2.362,2.086 m -7.757,8.339 c -0.893,0.945 -1.559,1.784 -1.479,1.863 0.182,0.182 2.727,-2.341 2.727,-2.703 0,-0.146 0.159,-0.323 0.353,-0.392 0.194,-0.07 0.279,-0.207 0.188,-0.306 -0.09,-0.099 -0.895,0.593 -1.789,1.538 m -9.276,9.847 c -0.733,0.786 -1.217,1.429 -1.077,1.429 0.422,0 2.616,-2.238 2.509,-2.559 -0.055,-0.164 -0.699,0.345 -1.432,1.13 m -6.804,7.338 c -0.879,0.922 -1.595,1.844 -1.591,2.05 0.007,0.306 1.847,-1.515 3.137,-3.105 0.912,-1.123 -0.178,-0.379 -1.546,1.055 m -8.076,8.679 c -1.417,1.498 -2.516,2.784 -2.442,2.859 0.075,0.074 0.809,-0.596 1.632,-1.49 0.823,-0.894 1.75,-1.9 2.061,-2.236 1.131,-1.222 1.638,-1.857 1.484,-1.857 -0.087,0 -1.317,1.226 -2.735,2.724 m -7.911,8.454 c -1.129,1.175 -1.985,2.204 -1.903,2.286 0.191,0.192 3.297,-2.905 3.297,-3.288 0,-0.159 0.113,-0.289 0.252,-0.289 0.139,0 0.325,-0.19 0.415,-0.423 0.257,-0.67 0.112,-0.55 -2.061,1.714 m -9.019,9.611 c -1.959,2.103 -2.377,3.035 -0.53,1.182 1.163,-1.166 2.634,-3.044 2.385,-3.044 -0.066,0 -0.901,0.838 -1.855,1.862 m -6.894,7.432 c -1.025,1.072 -1.788,2.025 -1.696,2.117 0.212,0.213 2.816,-2.504 3.571,-3.725 0.445,-0.721 -0.078,-0.272 -1.875,1.608 m -7.784,8.327 c -1.271,1.301 -2.31,2.461 -2.31,2.577 0,0.42 2.198,-1.642 3.499,-3.282 0.294,-0.37 0.727,-0.896 0.962,-1.167 1.124,-1.298 -0.081,-0.249 -2.151,1.872 m -7.797,8.406 c -1.031,1.109 -1.815,2.076 -1.742,2.149 0.188,0.189 2.709,-2.343 2.709,-2.721 0,-0.173 0.096,-0.314 0.214,-0.314 0.118,0 0.374,-0.254 0.568,-0.565 0.613,-0.982 0.181,-0.623 -1.749,1.451 m -9.594,10.159 c -1.049,1.103 -1.848,2.064 -1.778,2.135 0.172,0.171 3.864,-3.531 3.864,-3.873 0,-0.435 -0.096,-0.355 -2.086,1.738"
         id="path2" />
      <path
         style="fill:#5a88ce;fill-rule:evenodd;stroke:none"
         inkscape:connector-curvature="0"
         d="m 257.627,5.643 c 0,0.158 0.391,0.201 0.918,0.1 1.288,-0.245 1.329,-0.376 0.118,-0.376 -0.57,0 -1.036,0.124 -1.036,0.276 m -1.39,1.031 c -0.012,0.176 -0.985,1.3 -2.161,2.499 -1.176,1.2 -2.075,2.244 -1.998,2.321 0.178,0.178 3.854,-3.483 3.854,-3.838 0,-0.145 0.146,-0.313 0.325,-0.373 0.179,-0.059 0.252,-0.292 0.164,-0.517 -0.089,-0.226 -0.172,-0.267 -0.184,-0.092 m 8.452,6.061 c 0,0.689 0.66,0.592 0.798,-0.117 0.054,-0.279 -0.09,-0.471 -0.353,-0.471 -0.262,0 -0.445,0.241 -0.445,0.588 m -1.086,2.078 c 0.054,0.259 0.225,0.464 0.38,0.456 0.419,-0.022 0.342,-0.654 -0.098,-0.801 -0.237,-0.079 -0.343,0.05 -0.282,0.345 m -17.513,2.886 c -1.14,1.165 -2.008,2.184 -1.928,2.264 0.135,0.134 3.205,-2.813 4.107,-3.941 0.98,-1.226 -0.306,-0.236 -2.179,1.677 m 15.209,2.781 c 0,0.233 0.191,0.424 0.424,0.424 0.233,0 0.424,-0.191 0.424,-0.424 0,-0.233 -0.191,-0.424 -0.424,-0.424 -0.233,0 -0.424,0.191 -0.424,0.424 m -21.663,4.188 c -0.961,0.96 -1.914,1.884 -2.118,2.055 -0.76,0.637 -1.966,2.143 -1.828,2.281 0.128,0.128 2.588,-2.253 5.255,-5.088 1.623,-1.724 0.563,-1.115 -1.309,0.752 m 19.404,1.462 c 0,0.233 0.19,0.424 0.423,0.424 0.233,0 0.424,-0.191 0.424,-0.424 0,-0.233 -0.191,-0.424 -0.424,-0.424 -0.233,0 -0.423,0.191 -0.423,0.424 m -27.76,7.291 c -1.517,1.583 -2.976,3.196 -3.242,3.585 -0.5,0.73 -0.819,1.075 -5.32,5.756 -1.476,1.535 -2.623,2.851 -2.549,2.925 0.162,0.162 3.605,-3.39 8.689,-8.964 2.055,-2.253 4.183,-4.573 4.728,-5.155 0.546,-0.583 0.871,-1.052 0.723,-1.042 -0.148,0.009 -1.511,1.312 -3.029,2.895 m 25.691,-1.951 c -0.16,0.415 0.023,0.733 0.421,0.733 0.129,0 0.235,-0.254 0.235,-0.565 0,-0.647 -0.43,-0.758 -0.656,-0.168 m -2.31,5.536 c -0.206,0.333 0.061,0.847 0.44,0.847 0.147,0 0.266,-0.254 0.266,-0.565 0,-0.596 -0.411,-0.76 -0.706,-0.282 m -3.249,8.192 c 0,0.31 0.128,0.565 0.283,0.565 0.155,0 0.282,-0.255 0.282,-0.565 0,-0.311 -0.127,-0.565 -0.282,-0.565 -0.155,0 -0.283,0.254 -0.283,0.565 m -2.259,5.649 c 0,0.311 0.127,0.565 0.282,0.565 0.155,0 0.283,-0.254 0.283,-0.565 0,-0.31 -0.128,-0.565 -0.283,-0.565 -0.155,0 -0.282,0.255 -0.282,0.565 m -36.088,2.13 c -0.505,0.529 -0.918,1.108 -0.918,1.286 0,0.179 0.508,-0.199 1.13,-0.839 0.621,-0.641 1.13,-1.228 1.13,-1.306 0,-0.345 -0.494,-0.029 -1.342,0.859 m 33.828,3.52 c 0,0.311 0.127,0.565 0.282,0.565 0.156,0 0.283,-0.254 0.283,-0.565 0,-0.311 -0.127,-0.565 -0.283,-0.565 -0.155,0 -0.282,0.254 -0.282,0.565 m -40.443,3.369 c -0.052,0.144 -0.713,0.913 -1.469,1.709 -0.756,0.797 -1.301,1.521 -1.212,1.61 0.205,0.205 3.293,-3.023 3.293,-3.442 0,-0.249 -0.515,-0.145 -0.612,0.123 m -9.204,9.837 c -0.505,0.572 -0.918,1.147 -0.918,1.278 0,0.13 -0.777,0.999 -1.727,1.931 -0.949,0.933 -1.67,1.751 -1.602,1.82 0.116,0.116 3.966,-3.829 4.6,-4.713 0.155,-0.216 0.457,-0.614 0.67,-0.884 0.742,-0.939 -0.111,-0.465 -1.023,0.568 m -6.427,6.993 c -1.773,1.868 -3.247,3.625 -3.135,3.738 0.17,0.17 2.396,-2.07 3.24,-3.261 0.769,-1.084 0.713,-1.338 -0.105,-0.477 M 180.72,87.617 c -1.12,1.258 -0.956,1.565 0.212,0.396 0.544,-0.544 0.989,-1.056 0.989,-1.139 0,-0.362 -0.481,-0.065 -1.201,0.743 m -6.154,6.38 c -0.006,0.117 -0.641,0.9 -1.413,1.742 -1.7,1.853 -1.65,2.275 0.062,0.526 1.365,-1.395 2.085,-2.48 1.646,-2.48 -0.157,0 -0.289,0.096 -0.295,0.212 m -9.241,9.828 c -0.505,0.529 -0.918,1.079 -0.918,1.223 0,0.144 -0.646,0.921 -1.435,1.728 -0.789,0.806 -1.382,1.518 -1.317,1.583 0.116,0.117 3.063,-2.923 3.882,-4.004 0.233,-0.308 0.598,-0.778 0.811,-1.045 0.688,-0.861 -0.076,-0.477 -1.023,0.515 m -6.197,6.869 c -3.293,3.503 -3.761,4.041 -3.761,4.326 0,0.251 2.166,-1.91 3.081,-3.074 0.219,-0.278 0.974,-1.106 1.678,-1.841 0.704,-0.734 1.225,-1.388 1.156,-1.453 -0.068,-0.065 -1.037,0.854 -2.154,2.042 m 132.281,7.526 c 0.11,0.435 0.057,0.707 -0.135,0.707 -0.173,0 -0.314,0.18 -0.314,0.4 0,0.22 -0.158,0.457 -0.353,0.526 -0.194,0.069 -0.248,0.238 -0.12,0.374 0.131,0.139 0.351,0.038 0.501,-0.23 0.147,-0.262 0.455,-0.665 0.685,-0.895 0.548,-0.548 0.541,-1.588 -0.012,-1.588 -0.316,0 -0.382,0.185 -0.252,0.706 m -142.468,3.397 c -0.35,0.374 -0.636,0.83 -0.636,1.014 0,0.184 0.381,-0.065 0.848,-0.553 0.466,-0.487 0.847,-0.951 0.847,-1.03 0,-0.319 -0.458,-0.072 -1.059,0.569 m 134.533,5.592 c -1.155,1.223 -2.118,2.479 -2.118,2.762 0,0.208 0.883,-0.657 2.754,-2.703 0.35,-0.382 0.636,-0.762 0.636,-0.845 0,-0.351 -0.478,-0.056 -1.272,0.786 m -141.42,1.767 c -0.524,0.57 -1.252,1.346 -1.618,1.725 -0.366,0.379 -0.594,0.761 -0.506,0.849 0.148,0.147 1.607,-1.269 2.816,-2.732 0.879,-1.064 0.314,-0.934 -0.692,0.158 m 133.652,6.656 c -0.388,0.46 -0.88,1.027 -1.093,1.26 -0.665,0.728 -0.107,0.775 0.616,0.051 0.706,-0.706 1.443,-1.892 1.277,-2.055 -0.051,-0.05 -0.411,0.285 -0.8,0.744 m -142.581,2.721 c -0.347,0.424 -0.633,0.877 -0.635,1.005 -0.002,0.129 -0.528,0.738 -1.169,1.354 -0.641,0.616 -1.106,1.179 -1.034,1.251 0.182,0.182 3.894,-3.858 3.894,-4.239 0,-0.366 -0.471,-0.085 -1.056,0.629 m 134.272,6.303 c -1.695,1.793 -2.034,2.716 -0.391,1.064 0.936,-0.94 2.345,-2.782 2.128,-2.782 -0.062,0 -0.844,0.773 -1.737,1.718 m -140.491,0.503 c -2.53,2.686 -3.46,3.777 -3.46,4.063 0,0.28 1.971,-1.739 4.057,-4.158 1.919,-2.225 1.529,-2.163 -0.597,0.095 m 132.836,7.571 c -0.309,0.414 -0.735,0.929 -0.948,1.144 -0.213,0.214 -0.309,0.468 -0.214,0.563 0.096,0.095 0.397,-0.091 0.67,-0.413 1.624,-1.92 1.702,-2.047 1.269,-2.047 -0.118,0 -0.468,0.339 -0.777,0.753 m -142.751,3.097 c -0.365,0.389 -0.595,0.776 -0.511,0.86 0.152,0.153 1.599,-1.157 1.599,-1.448 0,-0.333 -0.454,-0.087 -1.088,0.588 m 134.183,5.937 c -0.675,0.699 -1.161,1.338 -1.079,1.419 0.146,0.147 2.73,-2.297 2.73,-2.582 0,-0.375 -0.519,-0.009 -1.651,1.163 m -141.568,1.935 c -0.888,0.945 -0.514,1.246 0.405,0.327 0.398,-0.398 0.723,-0.793 0.723,-0.878 0,-0.356 -0.51,-0.107 -1.128,0.551 m 134.321,5.908 c -0.691,0.721 -1.626,2.144 -1.41,2.144 0.373,0 2.145,-2.03 2.064,-2.365 -0.063,-0.259 -0.258,-0.193 -0.654,0.221 m -8.723,9.536 c -2.055,2.222 -2.357,2.998 -0.404,1.04 1.188,-1.191 2.655,-3.064 2.401,-3.064 -0.069,0 -0.967,0.91 -1.997,2.024 m -7.732,8.003 c -0.194,0.22 -0.353,0.523 -0.353,0.672 0,0.149 -0.159,0.327 -0.353,0.397 -0.195,0.069 -0.259,0.227 -0.143,0.351 0.204,0.219 1.625,-1.206 1.625,-1.631 0.001,-0.334 -0.39,-0.228 -0.776,0.211 m -8.501,9.082 c -0.83,0.855 -1.443,1.62 -1.362,1.701 0.145,0.145 3.295,-2.864 3.295,-3.149 0,-0.387 -0.549,0.024 -1.933,1.448 m -7.04,7.682 c -1.463,1.718 -1.762,2.122 -1.762,2.378 0,0.309 1.565,-1.31 2.196,-2.271 0.606,-0.924 0.321,-0.994 -0.434,-0.107 m -7.757,8.414 c -0.509,0.563 -1.459,1.608 -2.11,2.323 -0.652,0.714 -1.138,1.345 -1.08,1.403 0.146,0.146 2.971,-2.749 3.756,-3.848 0.86,-1.205 0.577,-1.144 -0.566,0.122 m -8.027,8.478 c -0.444,0.565 -0.982,1.207 -1.195,1.426 -0.212,0.219 -0.316,0.469 -0.229,0.556 0.184,0.183 1.605,-1.173 1.605,-1.531 0,-0.134 0.259,-0.521 0.576,-0.861 0.316,-0.34 0.458,-0.618 0.313,-0.618 -0.144,0 -0.625,0.463 -1.07,1.028 m -43.605,7.729 c 0,0.311 0.127,0.565 0.283,0.565 0.155,0 0.282,-0.254 0.282,-0.565 0,-0.311 -0.127,-0.565 -0.282,-0.565 -0.156,0 -0.283,0.254 -0.283,0.565 m 34.811,1.61 c -2.134,2.242 -2.146,2.75 -0.015,0.597 1.82,-1.838 2.359,-2.494 2.033,-2.474 -0.136,0.008 -1.044,0.853 -2.018,1.877 m -37.071,3.757 c 0,0.311 0.128,0.565 0.283,0.565 0.155,0 0.282,-0.254 0.282,-0.565 0,-0.31 -0.127,-0.565 -0.282,-0.565 -0.155,0 -0.283,0.255 -0.283,0.565 m 29.73,4.192 c -0.35,0.414 -1.015,1.197 -1.478,1.741 -0.463,0.543 -0.843,1.089 -0.846,1.213 -0.006,0.297 1.037,-0.777 2.22,-2.286 1.043,-1.33 1.128,-1.874 0.104,-0.668 m -31.839,1.258 c -0.121,0.279 -0.141,0.586 -0.044,0.683 0.287,0.287 0.518,-0.116 0.386,-0.673 -0.117,-0.493 -0.132,-0.494 -0.342,-0.01 m -2.41,5.85 c 0,0.31 0.127,0.565 0.282,0.565 0.156,0 0.283,-0.255 0.283,-0.565 0,-0.311 -0.127,-0.565 -0.283,-0.565 -0.155,0 -0.282,0.254 -0.282,0.565 m 26.555,1.2 c -1.597,1.768 -2.238,2.59 -2.116,2.712 0.148,0.147 3.244,-3.114 3.244,-3.418 0,-0.399 -0.3,-0.211 -1.128,0.706 m -28.674,4.167 c -0.206,0.333 0.061,0.847 0.44,0.847 0.147,0 0.266,-0.254 0.266,-0.565 0,-0.595 -0.411,-0.76 -0.706,-0.282 m -1.221,2.416 c 0.128,0.614 0.629,0.651 0.744,0.056 0.059,-0.309 -0.079,-0.495 -0.37,-0.495 -0.272,0 -0.427,0.183 -0.374,0.439 m 21.381,2.457 c -0.353,0.505 -0.771,1.006 -0.929,1.114 -0.158,0.109 -0.2,0.285 -0.092,0.393 0.195,0.195 2.17,-1.808 2.182,-2.213 0.016,-0.499 -0.567,-0.144 -1.161,0.706 m -23.55,3.037 c -0.23,0.372 0.108,0.901 0.443,0.694 0.344,-0.212 0.341,-0.977 -0.002,-0.977 -0.147,0 -0.345,0.127 -0.441,0.283 m 15.157,5.831 c -0.675,0.699 -1.159,1.339 -1.076,1.422 0.156,0.157 2.727,-2.257 2.727,-2.561 0,-0.399 -0.496,-0.057 -1.651,1.139 m -17.37,-0.276 c -0.325,0.325 -0.205,0.659 0.236,0.659 0.233,0 0.424,-0.19 0.424,-0.423 0,-0.442 -0.335,-0.561 -0.66,-0.236 m -2.706,6.129 c -0.729,1.179 -0.732,1.31 -0.024,1.31 0.376,0 0.565,-0.188 0.565,-0.565 0,-0.311 0.127,-0.565 0.282,-0.565 0.354,0 0.373,-0.758 0.024,-0.974 -0.142,-0.088 -0.523,0.269 -0.847,0.794 m 11.84,3.079 c -4.193,4.572 -5.65,5.558 -5.65,3.824 0,-0.446 -0.086,-0.535 -0.305,-0.316 -0.455,0.455 0.299,1.503 1.08,1.503 0.351,0 0.638,-0.128 0.638,-0.283 0,-0.155 0.136,-0.282 0.303,-0.282 0.327,0 4.539,-4.245 5.265,-5.306 0.841,-1.23 0.214,-0.825 -1.331,0.86"
         id="path3" />
      <path
         style="fill:#71b4e4;fill-rule:evenodd;stroke:none"
         inkscape:connector-curvature="0"
         d="m 257.415,6.115 c -0.585,0.289 -0.918,0.66 -0.918,1.026 0,0.558 0.016,0.56 0.572,0.056 0.314,-0.284 1.013,-0.526 1.553,-0.538 0.737,-0.015 0.981,-0.143 0.982,-0.515 0.001,-0.629 -0.946,-0.642 -2.189,-0.029 m 1.625,1.653 c 0,0.233 0.127,0.424 0.282,0.424 0.155,0 0.283,-0.191 0.283,-0.424 0,-0.233 -0.128,-0.423 -0.283,-0.423 -0.155,0 -0.282,0.19 -0.282,0.423 m -0.565,1.413 c 0,0.233 0.127,0.424 0.282,0.424 0.155,0 0.283,-0.191 0.283,-0.424 0,-0.233 -0.128,-0.424 -0.283,-0.424 -0.155,0 -0.282,0.191 -0.282,0.424 m -2.825,6.779 c 0,0.234 0.127,0.424 0.282,0.424 0.156,0 0.283,-0.19 0.283,-0.424 0,-0.233 -0.127,-0.423 -0.283,-0.423 -0.155,0 -0.282,0.19 -0.282,0.423 m -11.057,4.026 c -0.812,0.981 -1.157,1.483 -1.017,1.483 0.078,0 0.482,-0.445 0.896,-0.989 0.77,-1.009 0.863,-1.39 0.121,-0.494 m 9.362,-0.071 c 0,0.233 0.127,0.424 0.282,0.424 0.156,0 0.283,-0.191 0.283,-0.424 0,-0.233 -0.127,-0.423 -0.283,-0.423 -0.155,0 -0.282,0.19 -0.282,0.423 m -1.695,3.955 c 0,0.233 0.127,0.424 0.282,0.424 0.156,0 0.283,-0.191 0.283,-0.424 0,-0.233 -0.127,-0.424 -0.283,-0.424 -0.155,0 -0.282,0.191 -0.282,0.424 m -1.13,2.825 c 0,0.233 0.127,0.424 0.282,0.424 0.156,0 0.283,-0.191 0.283,-0.424 0,-0.233 -0.127,-0.424 -0.283,-0.424 -0.155,0 -0.282,0.191 -0.282,0.424 m -15.358,2.566 c -0.445,0.391 -0.753,0.767 -0.685,0.835 0.068,0.068 0.488,-0.256 0.933,-0.72 0.983,-1.027 0.856,-1.086 -0.248,-0.115 m 13.663,1.671 c 0,0.389 -0.127,0.706 -0.282,0.706 -0.156,0 -0.283,0.318 -0.283,0.707 0,0.388 -0.127,0.706 -0.282,0.706 -0.156,0 -0.283,0.247 -0.283,0.548 0,0.302 -0.127,0.627 -0.282,0.723 -0.156,0.096 -0.283,0.421 -0.283,0.723 0,0.301 -0.127,0.548 -0.282,0.548 -0.156,0 -0.283,0.318 -0.283,0.706 0,0.389 -0.127,0.707 -0.282,0.707 -0.156,0 -0.283,0.317 -0.283,0.706 0,0.388 -0.127,0.706 -0.282,0.706 -0.156,0 -0.283,0.318 -0.283,0.706 0,0.389 -0.127,0.707 -0.282,0.707 -0.156,0 -0.283,0.254 -0.283,0.564 0,0.311 -0.127,0.565 -0.282,0.565 -0.156,0 -0.283,0.318 -0.283,0.707 0,0.388 -0.127,0.706 -0.282,0.706 -0.156,0 -0.283,0.318 -0.283,0.706 0,0.389 -0.127,0.706 -0.282,0.706 -0.156,0 -0.283,0.193 -0.283,0.428 0,0.415 -0.118,0.715 -0.803,2.04 -0.18,0.348 -0.327,0.824 -0.327,1.06 0,0.235 -0.127,0.427 -0.282,0.427 -0.155,0 -0.283,0.318 -0.283,0.706 0,0.389 -0.127,0.707 -0.282,0.707 -0.155,0 -0.283,0.19 -0.283,0.423 0,0.233 0.191,0.424 0.424,0.424 0.283,0 0.424,-0.282 0.424,-0.847 0,-0.467 0.127,-0.848 0.282,-0.848 0.156,0 0.283,-0.254 0.283,-0.565 0,-0.311 0.127,-0.565 0.282,-0.565 0.156,0 0.283,-0.31 0.283,-0.689 0,-0.38 0.127,-0.769 0.282,-0.865 0.156,-0.096 0.283,-0.421 0.283,-0.722 0,-0.302 0.127,-0.549 0.282,-0.549 0.156,0 0.283,-0.246 0.283,-0.548 0,-0.302 0.127,-0.627 0.282,-0.723 0.156,-0.096 0.283,-0.421 0.283,-0.723 0,-0.301 0.127,-0.548 0.282,-0.548 0.156,0 0.283,-0.318 0.283,-0.706 0,-0.389 0.127,-0.707 0.282,-0.707 0.156,0 0.283,-0.317 0.283,-0.706 0,-0.388 0.127,-0.706 0.282,-0.706 0.156,0 0.283,-0.192 0.283,-0.428 0,-0.235 0.127,-0.68 0.282,-0.988 0.156,-0.309 0.41,-0.814 0.565,-1.122 0.155,-0.309 0.283,-0.754 0.283,-0.989 0,-0.235 0.099,-0.428 0.22,-0.428 0.122,0 0.397,-0.604 0.612,-1.342 0.214,-0.738 0.48,-1.405 0.591,-1.483 0.365,-0.256 0.621,-1.977 0.294,-1.977 -0.168,0 -0.305,0.318 -0.305,0.706 m -21.445,7.029 -0.682,0.881 0.809,-0.768 c 0.444,-0.423 0.751,-0.819 0.682,-0.881 -0.07,-0.062 -0.434,0.283 -0.809,0.768 m -7.101,7.449 -0.974,1.059 1.06,-0.974 c 0.986,-0.906 1.189,-1.145 0.973,-1.145 -0.047,0 -0.524,0.477 -1.059,1.06 m -2.768,2.501 c -0.21,0.237 -0.325,0.487 -0.257,0.556 0.068,0.068 0.355,-0.131 0.637,-0.443 0.282,-0.311 0.398,-0.562 0.257,-0.556 -0.14,0.006 -0.427,0.205 -0.637,0.443 m 23.193,2.579 c -0.195,0.067 -0.354,0.358 -0.354,0.647 0,0.288 -0.127,0.603 -0.282,0.699 -0.155,0.096 -0.272,0.39 -0.26,0.652 0.014,0.297 0.076,0.344 0.165,0.123 0.079,-0.195 0.259,-0.283 0.402,-0.195 0.142,0.088 0.258,-0.155 0.258,-0.54 0,-0.384 0.146,-0.748 0.325,-0.807 0.178,-0.06 0.274,-0.242 0.212,-0.405 -0.062,-0.163 -0.272,-0.242 -0.466,-0.174 m -27.451,2.476 c -0.97,1.01 -1.81,1.836 -1.868,1.836 -0.287,0 -1.56,1.504 -1.478,1.748 0.051,0.154 1.276,-1.003 2.723,-2.57 2.937,-3.183 3.348,-3.852 0.623,-1.014 m 26.156,0.33 c -0.104,0.103 -0.188,0.421 -0.188,0.706 0,0.285 -0.128,0.518 -0.283,0.518 -0.155,0 -0.282,0.318 -0.282,0.706 0,0.388 -0.128,0.706 -0.283,0.706 -0.155,0 -0.282,0.187 -0.282,0.415 0,0.253 0.165,0.351 0.423,0.252 0.233,-0.089 0.424,-0.466 0.424,-0.838 0,-0.372 0.127,-0.676 0.283,-0.676 0.155,0 0.282,-0.254 0.282,-0.565 0,-0.311 0.127,-0.565 0.282,-0.565 0.156,0 0.283,-0.191 0.283,-0.424 0,-0.441 -0.334,-0.56 -0.659,-0.235 m -1.695,3.954 c -0.104,0.104 -0.188,0.422 -0.188,0.707 0,0.285 -0.128,0.518 -0.283,0.518 -0.155,0 -0.282,0.263 -0.282,0.585 0,0.52 0.047,0.538 0.423,0.161 0.233,-0.233 0.424,-0.623 0.424,-0.867 0,-0.245 0.127,-0.444 0.283,-0.444 0.155,0 0.282,-0.191 0.282,-0.424 0,-0.441 -0.334,-0.561 -0.659,-0.236 m -1.189,2.938 c -0.102,0.166 -0.118,0.369 -0.035,0.452 0.202,0.203 0.753,-0.154 0.753,-0.487 0,-0.361 -0.488,-0.337 -0.718,0.035 m -0.341,1.036 c -0.194,0.067 -0.353,0.359 -0.353,0.647 0,0.289 -0.127,0.604 -0.283,0.7 -0.155,0.096 -0.282,0.373 -0.282,0.616 0,0.36 0.078,0.377 0.423,0.09 0.233,-0.194 0.424,-0.58 0.424,-0.859 0,-0.278 0.146,-0.555 0.325,-0.615 0.179,-0.059 0.274,-0.242 0.212,-0.405 -0.062,-0.163 -0.272,-0.241 -0.466,-0.174 m -33.245,2.486 c -1.217,1.17 -2.157,2.183 -2.089,2.251 0.068,0.068 1.131,-0.889 2.362,-2.128 2.836,-2.852 2.651,-2.936 -0.273,-0.123 m 31.95,0.32 c -0.104,0.104 -0.188,0.422 -0.188,0.706 0,0.285 -0.127,0.518 -0.283,0.518 -0.155,0 -0.282,0.264 -0.282,0.585 0,0.521 0.047,0.538 0.423,0.162 0.234,-0.233 0.424,-0.624 0.424,-0.868 0,-0.244 0.127,-0.444 0.283,-0.444 0.155,0 0.282,-0.19 0.282,-0.423 0,-0.442 -0.334,-0.561 -0.659,-0.236 m -1.318,3.052 c 0,0.252 0.165,0.351 0.424,0.252 0.233,-0.09 0.423,-0.276 0.423,-0.415 0,-0.139 -0.19,-0.252 -0.423,-0.252 -0.234,0 -0.424,0.186 -0.424,0.415 m -0.453,1.209 c -0.085,0.272 -0.271,0.715 -0.415,0.985 -0.356,0.666 -0.332,0.78 0.162,0.78 0.263,0 0.423,-0.266 0.423,-0.706 0,-0.388 0.127,-0.706 0.283,-0.706 0.155,0 0.282,-0.191 0.282,-0.424 0,-0.586 -0.548,-0.533 -0.735,0.071 m -38.369,4.308 c -1.055,1.087 -1.797,1.977 -1.649,1.977 0.282,0 3.748,-3.503 3.748,-3.789 0,-0.319 -0.197,-0.15 -2.099,1.812 m 37.323,-1.797 c -0.226,0.226 0.029,0.667 0.386,0.667 0.146,0 0.265,-0.191 0.265,-0.424 0,-0.437 -0.333,-0.561 -0.651,-0.243 m -0.59,1.396 c -0.244,0.638 -0.221,0.685 0.253,0.503 0.233,-0.089 0.423,-0.34 0.423,-0.556 0,-0.535 -0.464,-0.499 -0.676,0.053 m -1.189,2.873 c -0.084,0.272 -0.271,0.715 -0.415,0.984 -0.361,0.676 -0.33,0.79 0.162,0.601 0.233,-0.09 0.423,-0.474 0.423,-0.855 0,-0.39 0.124,-0.617 0.283,-0.519 0.155,0.097 0.282,-0.023 0.282,-0.265 0,-0.599 -0.546,-0.559 -0.735,0.054 m -1.627,3.884 c -0.099,0.258 0,0.424 0.253,0.424 0.228,0 0.415,-0.191 0.415,-0.424 0,-0.233 -0.114,-0.424 -0.253,-0.424 -0.139,0 -0.325,0.191 -0.415,0.424 m -41.979,2.129 c -1.133,1.093 -2.005,2.043 -1.937,2.11 0.067,0.068 1.066,-0.827 2.219,-1.988 2.654,-2.672 2.452,-2.76 -0.282,-0.122 m -5.588,6.201 c -0.816,0.766 -1.483,1.517 -1.483,1.668 0,0.151 -0.254,0.355 -0.565,0.454 -0.311,0.098 -0.565,0.369 -0.565,0.6 0,0.232 -0.127,0.343 -0.282,0.247 -0.156,-0.096 -0.283,0.024 -0.283,0.266 0,0.643 -0.024,0.662 2.512,-2.102 1.282,-1.398 2.29,-2.539 2.24,-2.534 -0.05,0.004 -0.758,0.635 -1.574,1.401 m -5.597,6.288 -0.83,0.919 0.919,-0.83 c 0.505,-0.456 0.918,-0.87 0.918,-0.918 0,-0.218 -0.233,-0.026 -1.007,0.829 m -4.47,4.319 c -1.225,1.169 -2.172,2.181 -2.103,2.249 0.068,0.069 1.131,-0.889 2.362,-2.127 2.83,-2.846 2.674,-2.92 -0.259,-0.122 m 49.827,-0.011 c 0,0.233 0.127,0.424 0.282,0.424 0.156,0 0.283,-0.191 0.283,-0.424 0,-0.233 -0.127,-0.423 -0.283,-0.423 -0.155,0 -0.282,0.19 -0.282,0.423 m -1.695,3.955 c 0,0.233 0.127,0.424 0.282,0.424 0.156,0 0.283,-0.191 0.283,-0.424 0,-0.233 -0.127,-0.424 -0.283,-0.424 -0.155,0 -0.282,0.191 -0.282,0.424 m -56.171,4.779 c -0.958,0.997 -1.899,1.877 -2.093,1.955 -0.211,0.086 -0.156,0.151 0.137,0.165 0.452,0.02 1.926,-1.384 3.34,-3.182 0.994,-1.264 0.444,-0.842 -1.384,1.062 m 54.476,-0.824 c 0,0.233 0.127,0.424 0.283,0.424 0.155,0 0.282,-0.191 0.282,-0.424 0,-0.233 -0.127,-0.424 -0.282,-0.424 -0.156,0 -0.283,0.191 -0.283,0.424 m -0.565,1.412 c 0,0.233 0.127,0.424 0.283,0.424 0.155,0 0.282,-0.191 0.282,-0.424 0,-0.233 -0.127,-0.423 -0.282,-0.423 -0.156,0 -0.283,0.19 -0.283,0.423 m -0.565,1.413 c 0,0.233 0.127,0.424 0.283,0.424 0.155,0 0.282,-0.191 0.282,-0.424 0,-0.233 -0.127,-0.424 -0.282,-0.424 -0.156,0 -0.283,0.191 -0.283,0.424 m -0.565,1.695 c 0,0.388 -0.127,0.706 -0.282,0.706 -0.156,0 -0.283,0.254 -0.283,0.565 0,0.311 -0.127,0.565 -0.282,0.565 -0.156,0 -0.283,0.318 -0.283,0.706 0,0.389 -0.127,0.706 -0.282,0.706 -0.156,0 -0.283,0.318 -0.283,0.707 0,0.388 -0.127,0.706 -0.282,0.706 -0.156,0 -0.283,0.246 -0.283,0.548 0,0.302 -0.112,0.618 -0.248,0.702 -0.137,0.085 -0.312,0.48 -0.388,0.878 -0.137,0.721 -0.135,0.722 0.39,0.158 0.291,-0.312 0.529,-0.827 0.529,-1.144 0,-0.318 0.127,-0.577 0.282,-0.577 0.156,0 0.283,-0.193 0.283,-0.428 0,-0.415 0.118,-0.715 0.803,-2.04 0.18,-0.348 0.327,-0.814 0.327,-1.036 0,-0.222 0.107,-0.446 0.237,-0.498 0.351,-0.139 0.648,-1.93 0.321,-1.93 -0.152,0 -0.276,0.317 -0.276,0.706 m -60.985,4.951 c -1.148,1.093 -2.031,2.042 -1.962,2.111 0.068,0.068 1.068,-0.825 2.221,-1.986 2.648,-2.666 2.491,-2.742 -0.259,-0.125 m -6.336,6.935 c -1.37,1.324 -2.446,2.541 -2.392,2.704 0.055,0.164 1.22,-0.923 2.589,-2.415 1.369,-1.491 2.446,-2.708 2.392,-2.704 -0.054,0.004 -1.219,1.091 -2.589,2.415 m 134.119,4.931 c -2.01,2.015 -3.589,3.663 -3.51,3.663 0.245,0 7.402,-7.088 7.28,-7.21 -0.063,-0.063 -1.76,1.533 -3.77,3.547 m -138.675,0.255 -1.114,1.289 1.242,-1.191 c 0.683,-0.655 1.184,-1.235 1.114,-1.289 -0.07,-0.054 -0.629,0.482 -1.242,1.191 m -4.22,4.127 c -1.535,1.479 -2.736,2.745 -2.669,2.812 0.068,0.068 1.385,-1.144 2.928,-2.693 3.561,-3.575 3.403,-3.648 -0.259,-0.119 m 136.531,2.308 c -1.489,1.591 -1.999,2.369 -0.979,1.493 1.602,-1.376 2.168,-1.997 2.074,-2.278 -0.052,-0.157 -0.545,0.196 -1.095,0.785 m -145.149,7.001 c -0.645,0.699 -1.304,1.271 -1.466,1.271 -0.161,0 -0.221,0.117 -0.133,0.259 0.088,0.142 0,0.322 -0.195,0.401 -0.196,0.079 -0.224,0.153 -0.064,0.166 0.16,0.012 1.046,-0.741 1.969,-1.673 0.922,-0.932 1.538,-1.695 1.369,-1.695 -0.17,0 -0.836,0.572 -1.48,1.271 m 136.123,2.894 c -1.939,1.98 -2.7,2.834 -1.69,1.898 4.726,-4.381 5.853,-5.498 5.547,-5.498 -0.181,0 -1.917,1.62 -3.857,3.6 m -143.856,5.285 c -1.512,1.468 -2.75,2.769 -2.75,2.89 0,0.121 1.272,-1.046 2.825,-2.594 1.554,-1.548 2.825,-2.849 2.825,-2.89 0,-0.198 -0.333,0.1 -2.9,2.594 m 137.113,1.719 c -1.95,2.085 -2.373,3.053 -0.523,1.197 1.178,-1.181 2.633,-3.044 2.379,-3.044 -0.071,0 -0.906,0.831 -1.856,1.847 m -143.111,4.893 c -2.058,1.998 -3.334,3.438 -3.183,3.59 0.062,0.062 1.226,-1.093 2.586,-2.566 1.36,-1.474 2.432,-2.677 2.382,-2.675 -0.05,0.002 -0.853,0.745 -1.785,1.651 m 133.319,5.768 c -2.012,2.052 -2.781,2.906 -1.709,1.897 3.448,-3.245 5.592,-5.404 5.478,-5.518 -0.06,-0.061 -1.756,1.569 -3.769,3.621 m -5.795,6.055 c -1.489,1.592 -1.999,2.37 -0.978,1.494 1.601,-1.376 2.167,-1.997 2.073,-2.279 -0.052,-0.156 -0.545,0.197 -1.095,0.785 m -60.151,1.635 c 0,0.233 0.127,0.424 0.282,0.424 0.156,0 0.283,-0.191 0.283,-0.424 0,-0.233 -0.127,-0.424 -0.283,-0.424 -0.155,0 -0.282,0.191 -0.282,0.424 m -1.695,4.237 c 0,0.233 0.127,0.424 0.282,0.424 0.156,0 0.283,-0.191 0.283,-0.424 0,-0.233 -0.127,-0.424 -0.283,-0.424 -0.155,0 -0.282,0.191 -0.282,0.424 m 52.535,4.32 c -3.134,3.191 -2.526,2.745 1.554,-1.139 1.084,-1.032 1.907,-1.94 1.829,-2.018 -0.078,-0.078 -1.601,1.343 -3.383,3.157 m -53.665,-1.778 c 0,0.234 0.127,0.424 0.282,0.424 0.156,0 0.283,-0.19 0.283,-0.424 0,-0.233 -0.127,-0.423 -0.283,-0.423 -0.155,0 -0.282,0.19 -0.282,0.423 m -0.565,1.413 c 0,0.233 0.127,0.424 0.282,0.424 0.156,0 0.283,-0.191 0.283,-0.424 0,-0.233 -0.127,-0.424 -0.283,-0.424 -0.155,0 -0.282,0.191 -0.282,0.424 m -2.26,5.367 c 0,0.233 0.127,0.424 0.283,0.424 0.155,0 0.282,-0.191 0.282,-0.424 0,-0.233 -0.127,-0.424 -0.282,-0.424 -0.156,0 -0.283,0.191 -0.283,0.424 m 51.13,0.306 c 0,0.143 -0.698,0.958 -1.551,1.813 -1.899,1.903 -3.044,3.474 -1.544,2.118 1.831,-1.653 2.248,-2.096 2.248,-2.388 0,-0.162 0.096,-0.295 0.214,-0.295 0.306,0 0.986,-1.153 0.794,-1.346 -0.089,-0.088 -0.161,-0.044 -0.161,0.098 m -51.695,1.107 c 0,0.233 0.127,0.423 0.283,0.423 0.155,0 0.282,-0.19 0.282,-0.423 0,-0.234 -0.127,-0.424 -0.282,-0.424 -0.156,0 -0.283,0.19 -0.283,0.424 m -1.695,3.954 c 0,0.233 0.127,0.424 0.283,0.424 0.155,0 0.282,-0.191 0.282,-0.424 0,-0.233 -0.127,-0.423 -0.282,-0.423 -0.156,0 -0.283,0.19 -0.283,0.423 m -0.565,1.13 c 0,0.233 0.127,0.424 0.283,0.424 0.155,0 0.282,-0.191 0.282,-0.424 0,-0.233 -0.127,-0.423 -0.282,-0.423 -0.156,0 -0.283,0.19 -0.283,0.423 m 42.51,6.425 c -2.017,2.058 -2.664,2.789 -1.436,1.625 3.043,-2.887 4.475,-4.303 4.935,-4.88 0.945,-1.185 -0.087,-0.225 -3.499,3.255 m -6.38,6.64 c -1.491,1.595 -1.984,2.354 -0.962,1.483 0.985,-0.838 2.403,-2.273 2.403,-2.431 0,-0.356 -0.574,0.021 -1.441,0.948 m -41.78,0.353 c 0,0.156 0.191,0.283 0.424,0.283 0.233,0 0.424,-0.127 0.424,-0.283 0,-0.155 -0.191,-0.282 -0.424,-0.282 -0.233,0 -0.424,0.127 -0.424,0.282 m -0.776,2.447 c -0.492,0.199 -0.443,0.661 0.07,0.661 0.233,0 0.424,-0.191 0.424,-0.424 0,-0.233 -0.032,-0.414 -0.071,-0.401 -0.039,0.012 -0.229,0.086 -0.423,0.164 m -1.159,2.826 c -0.21,0.228 -0.303,0.493 -0.207,0.589 0.236,0.236 0.819,-0.375 0.691,-0.724 -0.056,-0.154 -0.274,-0.094 -0.484,0.135 m 34.7,4.265 c -1.94,1.961 -2.637,2.75 -1.55,1.752 3.647,-3.344 5.355,-5.04 5.216,-5.179 -0.076,-0.076 -1.725,1.466 -3.666,3.427 m -35.589,-2.758 c 0,0.155 0.19,0.283 0.423,0.283 0.233,0 0.424,-0.128 0.424,-0.283 0,-0.155 -0.191,-0.282 -0.424,-0.282 -0.233,0 -0.423,0.127 -0.423,0.282 m -0.212,1.051 c -0.194,0.069 -0.353,0.433 -0.353,0.809 0,0.375 -0.128,0.682 -0.283,0.682 -0.155,0 -0.282,0.128 -0.282,0.283 0,0.624 0.566,0.224 1.012,-0.716 0.5,-1.054 0.482,-1.264 -0.094,-1.058 m -1.13,2.825 c -0.194,0.069 -0.353,0.37 -0.353,0.667 0,0.298 -0.127,0.542 -0.283,0.542 -0.155,0 -0.282,0.318 -0.282,0.706 0,0.388 -0.127,0.706 -0.283,0.706 -0.155,0 -0.282,0.318 -0.282,0.706 0,0.389 -0.127,0.707 -0.283,0.707 -0.155,0 -0.282,0.246 -0.282,0.548 0,0.302 -0.127,0.627 -0.283,0.723 -0.427,0.264 -0.338,0.706 0.142,0.706 0.263,0 0.423,-0.267 0.423,-0.706 0,-0.389 0.127,-0.706 0.283,-0.706 0.155,0 0.282,-0.318 0.282,-0.707 0,-0.388 0.127,-0.706 0.283,-0.706 0.155,0 0.282,-0.192 0.282,-0.427 0,-0.236 0.147,-0.712 0.327,-1.06 0.945,-1.828 0.964,-1.933 0.309,-1.699 m 30.508,5.51 c -2.243,2.43 -2.811,3.509 -0.777,1.475 0.7,-0.699 1.272,-1.403 1.272,-1.563 0,-0.16 0.127,-0.213 0.282,-0.117 0.155,0.096 0.283,0.016 0.283,-0.177 0,-0.194 0.275,-0.645 0.613,-1.004 0.337,-0.359 0.559,-0.694 0.494,-0.743 -0.065,-0.05 -1.04,0.908 -2.167,2.129 m -33.333,0.987 c -0.194,0.069 -0.353,0.433 -0.353,0.809 0,0.375 -0.127,0.682 -0.283,0.682 -0.155,0 -0.282,0.318 -0.282,0.707 0,0.388 -0.127,0.706 -0.283,0.706 -0.155,0 -0.282,0.127 -0.282,0.282 0,0.156 0.191,0.283 0.424,0.283 0.233,0 0.423,-0.193 0.423,-0.428 0,-0.235 0.113,-0.648 0.25,-0.918 1.027,-2.019 1.092,-2.375 0.386,-2.123 m -1.695,4.191 c -0.194,0.211 -0.353,0.58 -0.353,0.82 0,0.239 -0.127,0.435 -0.283,0.435 -0.155,0 -0.282,0.297 -0.282,0.659 0,0.363 -0.089,0.748 -0.197,0.856 -0.108,0.108 -0.228,0.413 -0.267,0.678 -0.039,0.264 -0.204,0.525 -0.368,0.58 -0.164,0.055 -0.298,0.335 -0.298,0.624 0,0.289 -0.127,0.603 -0.283,0.699 -0.155,0.096 -0.282,0.485 -0.282,0.864 0,0.38 -0.127,0.69 -0.282,0.69 -0.156,0 -0.283,0.187 -0.283,0.415 0,0.228 -0.254,0.868 -0.565,1.421 -0.311,0.553 -0.565,1.264 -0.565,1.579 0,0.315 -0.127,0.495 -0.282,0.399 -0.156,-0.097 -0.283,0.088 -0.283,0.41 0,0.322 -0.112,0.807 -0.249,1.076 -0.138,0.27 -0.407,0.872 -0.598,1.338 -0.192,0.466 -0.461,1.069 -0.598,1.338 -0.138,0.27 -0.25,0.683 -0.25,0.918 0,0.236 -0.127,0.428 -0.282,0.428 -0.156,0 -0.283,0.318 -0.283,0.706 0,0.389 -0.127,0.706 -0.282,0.706 -0.156,0 -0.283,0.229 -0.283,0.509 0,0.28 -0.113,0.629 -0.252,0.777 -0.406,0.43 -0.714,2.211 -0.343,1.982 0.172,-0.107 0.313,-0.504 0.313,-0.883 0,-0.379 0.127,-0.69 0.282,-0.69 0.156,0 0.283,-0.254 0.283,-0.565 0,-0.31 0.127,-0.565 0.282,-0.565 0.156,0 0.283,-0.317 0.283,-0.706 0,-0.388 0.127,-0.706 0.282,-0.706 0.156,0 0.283,-0.318 0.283,-0.706 0,-0.389 0.127,-0.706 0.282,-0.706 0.156,0 0.283,-0.255 0.283,-0.565 0,-0.311 0.127,-0.565 0.282,-0.565 0.156,0 0.283,-0.318 0.283,-0.707 0,-0.388 0.127,-0.706 0.282,-0.706 0.155,0 0.283,-0.318 0.283,-0.706 0,-0.388 0.127,-0.706 0.282,-0.706 0.155,0 0.283,-0.318 0.283,-0.706 0,-0.389 0.127,-0.707 0.282,-0.707 0.155,0 0.283,-0.246 0.283,-0.548 0,-0.302 0.127,-0.627 0.282,-0.723 0.155,-0.096 0.283,-0.421 0.283,-0.723 0,-0.301 0.127,-0.548 0.282,-0.548 0.155,0 0.282,-0.318 0.282,-0.706 0,-0.389 0.128,-0.706 0.283,-0.706 0.155,0 0.282,-0.318 0.282,-0.707 0,-0.388 0.128,-0.706 0.283,-0.706 0.155,0 0.282,-0.192 0.282,-0.427 0,-0.236 0.147,-0.712 0.327,-1.06 0.681,-1.318 0.803,-1.624 0.803,-2.017 0,-0.222 0.142,-0.451 0.315,-0.509 0.173,-0.057 0.269,-0.31 0.212,-0.56 -0.086,-0.382 -0.16,-0.394 -0.456,-0.072 m 24.562,6.142 c -1.895,1.9 -3.446,3.518 -3.446,3.594 0,0.077 1.601,-1.427 3.559,-3.342 1.957,-1.915 3.508,-3.533 3.446,-3.595 -0.062,-0.061 -1.663,1.443 -3.559,3.343 m -6.163,6.483 c -2.796,2.893 -2.555,3.126 0.336,0.324 0.794,-0.769 1.717,-2.089 1.462,-2.089 -0.051,0 -0.86,0.794 -1.798,1.765 m -8.583,9.443 -3.248,3.286 3.319,-3.052 c 2.769,-2.547 3.708,-3.566 3.249,-3.527 -0.039,0.004 -1.533,1.485 -3.32,3.293 m -19.491,1.08 c 0,0.233 0.127,0.424 0.282,0.424 0.156,0 0.283,-0.191 0.283,-0.424 0,-0.233 -0.127,-0.424 -0.283,-0.424 -0.155,0 -0.282,0.191 -0.282,0.424 m -0.565,1.412 c 0,0.233 0.127,0.424 0.282,0.424 0.156,0 0.283,-0.191 0.283,-0.424 0,-0.233 -0.127,-0.423 -0.283,-0.423 -0.155,0 -0.282,0.19 -0.282,0.423 m 13.252,4.591 c -2.148,2.219 -3.068,3.418 -1.68,2.189 1.863,-1.649 2.835,-2.669 2.835,-2.973 0,-0.17 0.112,-0.239 0.25,-0.154 0.138,0.085 0.317,-0.098 0.397,-0.407 0.196,-0.747 0.293,-0.82 -1.802,1.345 m -14.947,-0.636 c 0,0.233 0.127,0.424 0.282,0.424 0.156,0 0.283,-0.191 0.283,-0.424 0,-0.233 -0.127,-0.424 -0.283,-0.424 -0.155,0 -0.282,0.191 -0.282,0.424 M 150,253.814 c 0,0.233 0.127,0.423 0.282,0.423 0.156,0 0.283,-0.19 0.283,-0.423 0,-0.233 -0.127,-0.424 -0.283,-0.424 -0.155,0 -0.282,0.191 -0.282,0.424 m -0.565,1.412 c 0,0.233 0.127,0.424 0.283,0.424 0.155,0 0.282,-0.191 0.282,-0.424 0,-0.233 -0.127,-0.424 -0.282,-0.424 -0.156,0 -0.283,0.191 -0.283,0.424 m -1.695,3.955 c 0,0.233 0.127,0.424 0.283,0.424 0.155,0 0.282,-0.191 0.282,-0.424 0,-0.233 -0.127,-0.424 -0.282,-0.424 -0.156,0 -0.283,0.191 -0.283,0.424 m 8.178,4.316 c -2.089,2.13 -2.859,2.983 -1.709,1.897 3.693,-3.492 5.733,-5.546 5.62,-5.659 -0.061,-0.061 -1.821,1.632 -3.911,3.762 m -9.873,-0.361 c 0,0.233 0.127,0.423 0.283,0.423 0.155,0 0.282,-0.19 0.282,-0.423 0,-0.233 -0.127,-0.424 -0.282,-0.424 -0.156,0 -0.283,0.191 -0.283,0.424 m -1.13,2.824 c 0,0.234 0.127,0.424 0.283,0.424 0.155,0 0.282,-0.19 0.282,-0.424 0,-0.233 -0.127,-0.423 -0.282,-0.423 -0.156,0 -0.283,0.19 -0.283,0.423 m -0.212,1.176 c -0.194,0.079 -0.353,0.45 -0.353,0.825 0,0.376 -0.127,0.683 -0.282,0.683 -0.156,0 -0.283,0.318 -0.283,0.706 0,0.389 -0.127,0.706 -0.282,0.706 -0.156,0 -0.283,0.382 -0.283,0.848 0,0.466 -0.127,0.847 -0.282,0.847 -0.156,0 -0.283,0.382 -0.283,0.848 0,0.466 -0.127,0.847 -0.282,0.847 -0.155,0 -0.283,0.318 -0.283,0.707 0,0.388 -0.127,0.706 -0.282,0.706 -0.155,0 -0.273,0.604 -0.261,1.342 l 0.022,1.341 0.521,-1.695 c 0.286,-0.932 1.095,-3.315 1.797,-5.296 0.701,-1.981 1.252,-3.592 1.223,-3.58 -0.03,0.013 -0.212,0.087 -0.407,0.165 m 1.567,6.394 c -2.129,2.195 -3.796,4.06 -3.704,4.143 0.092,0.084 0.223,-0.007 0.293,-0.201 0.069,-0.194 0.284,-0.353 0.477,-0.353 0.193,0 0.649,-0.318 1.014,-0.707 0.365,-0.388 0.571,-0.706 0.457,-0.706 -0.113,0 0.564,-0.755 1.505,-1.679 0.941,-0.924 1.711,-1.813 1.711,-1.977 0,-0.164 0.113,-0.299 0.252,-0.299 0.4,0 2.068,-1.657 1.962,-1.949 -0.053,-0.145 -1.838,1.532 -3.967,3.728"
         id="path4" />
    </g>
    <path
       inkscape:connector-curvature="0"
       id="path4849"
       d="m 108.475,282.61906 149.152,-159.329"
       style="fill:#0000ff;stroke:#0082ff;stroke-width:1px;stroke-linecap:butt;stroke-linejoin:miter;stroke-opacity:1" />
    <path
       inkscape:connector-curvature="0"
       id="path4851"
       d="m 257.627,123.29006 1.413,2.125"
       style="fill:none;stroke:#0082ff;stroke-width:1px;stroke-linecap:butt;stroke-linejoin:miter;stroke-opacity:1" />
    <path
       inkscape:connector-curvature="0"
       id="path4853"
       d="m 259.04,125.41506 -45.622,110.029 78.672,0.282 -147.176,158.183"
       style="fill:none;stroke:#0082ff;stroke-width:1px;stroke-linecap:butt;stroke-linejoin:miter;stroke-opacity:1" />
    <path
       inkscape:connector-curvature="0"
       id="path4855"
       d="m 144.914,393.90906 -3.345,1.28 -0.397,-2.522 45.834,-109.483 -79.14226,0.0693"
       style="fill:none;stroke:#0082ff;stroke-width:1px;stroke-linecap:butt;stroke-linejoin:miter;stroke-opacity:1" />
  </g>
</svg>
