<?xml version="1.0" encoding="UTF-8" standalone="no"?>
<!-- Generator: Adobe Illustrator 23.0.1, SVG Export Plug-In . SVG Version: 6.00 Build 0)  -->

<svg
   xmlns:dc="http://purl.org/dc/elements/1.1/"
   xmlns:cc="http://creativecommons.org/ns#"
   xmlns:rdf="http://www.w3.org/1999/02/22-rdf-syntax-ns#"
   xmlns:svg="http://www.w3.org/2000/svg"
   xmlns="http://www.w3.org/2000/svg"
   xmlns:sodipodi="http://sodipodi.sourceforge.net/DTD/sodipodi-0.dtd"
   xmlns:inkscape="http://www.inkscape.org/namespaces/inkscape"
   version="1.1"
   id="Layer_1"
   x="0px"
   y="0px"
   viewBox="0 0 100 100"
   xml:space="preserve"
   sodipodi:docname="swagger-logo.svg"
   width="100"
   height="100"
   inkscape:version="0.92.3 (2405546, 2018-03-11)"><metadata
   id="metadata133"><rdf:RDF><cc:Work
       rdf:about=""><dc:format>image/svg+xml</dc:format><dc:type
         rdf:resource="http://purl.org/dc/dcmitype/StillImage" /><dc:title></dc:title></cc:Work></rdf:RDF></metadata><defs
   id="defs131" /><sodipodi:namedview
   pagecolor="#ffffff"
   bordercolor="#666666"
   borderopacity="1"
   objecttolerance="10"
   gridtolerance="10"
   guidetolerance="10"
   inkscape:pageopacity="0"
   inkscape:pageshadow="2"
   inkscape:window-width="640"
   inkscape:window-height="480"
   id="namedview129"
   showgrid="false"
   inkscape:zoom="0.83665633"
   inkscape:cx="204.38499"
   inkscape:cy="58.82"
   inkscape:window-x="0"
   inkscape:window-y="27"
   inkscape:window-maximized="0"
   inkscape:current-layer="Layer_1" />
<style
   type="text/css"
   id="style2">
	.st0{fill:#FFFFFF;}
	.st1{fill:#2C282C;}
	.st2{fill:#173647;}
	.st3{fill:#50E4EA;}
	.st4{fill:#FCDC00;}
	.st5{fill:#85EA2D;}
	.st6{fill:#F4CF14;}
	.st7{fill:none;}
	.st8{fill:#04AADB;}
	.st9{fill:#07CED6;}
	.st10{fill:#63DB2A;}
	.st11{fill:#FF730B;}
	.st12{fill:#17D1FC;}
	.st13{fill:#00AADB;}
	.st14{fill:#758491;}
</style>
<g
   id="g126"
   transform="translate(0,-0.9067186)">
	<g
   id="g16">
		<g
   id="g14">
			<g
   id="g12">
				<g
   id="g10">
					<rect
   x="356.88501"
   y="66.114998"
   class="st7"
   width="12.217"
   height="9.9729996"
   id="rect4"
   style="fill:none" />
					<path
   class="st2"
   d="m 358.929,70.674 h -0.7 v -3.683 h -1.26 V 66.39 h 3.22 v 0.601 h -1.26 z"
   id="path6"
   inkscape:connector-curvature="0"
   style="fill:#173647" />
					<path
   class="st2"
   d="m 362.997,70.674 -1.242,-3.577 h -0.023 c 0.033,0.531 0.05,1.029 0.05,1.494 v 2.083 h -0.636 v -4.283 h 0.987 l 1.189,3.407 h 0.018 l 1.225,-3.407 h 0.99 v 4.283 h -0.674 v -2.118 c 0,-0.213 0.005,-0.49 0.016,-0.832 0.011,-0.342 0.02,-0.549 0.028,-0.621 h -0.023 l -1.286,3.571 z"
   id="path8"
   inkscape:connector-curvature="0"
   style="fill:#173647" />
				</g>
			</g>
		</g>
	</g>
	<g
   id="g36">
		<g
   id="g32">
			<g
   id="g30">
				<g
   id="g28">
					<g
   id="g20">
						<path
   class="st5"
   d="m 50.328,97.669 c -26.27,0 -47.643,-21.371 -47.643,-47.642 0,-26.271 21.373,-47.642 47.643,-47.642 26.27,0 47.643,21.373 47.643,47.643 0,26.27 -21.373,47.641 -47.643,47.641 z"
   id="path18"
   inkscape:connector-curvature="0"
   style="fill:#85ea2d" />
					</g>
					<g
   id="g26">
						<g
   id="g24">
							<path
   class="st2"
   d="m 50.328,4.769 c 24.996,0 45.258,20.262 45.258,45.258 0,24.995 -20.262,45.258 -45.258,45.258 C 25.333,95.285 5.07,75.022 5.07,50.027 5.07,25.032 25.333,4.769 50.328,4.769 M 50.328,0 C 22.743,0 0.301,22.442 0.301,50.027 c 0,27.585 22.442,50.027 50.027,50.027 27.585,0 50.028,-22.442 50.028,-50.027 C 100.356,22.442 77.913,0 50.328,0 Z"
   id="path22"
   inkscape:connector-curvature="0"
   style="fill:#173647" />
						</g>
					</g>
				</g>
			</g>
		</g>
		<path
   class="st2"
   d="m 31.802,33.854 c -0.154,1.712 0.057,3.482 -0.057,5.213 -0.135,1.732 -0.347,3.444 -0.693,5.156 -0.481,2.443 -2.001,4.29 -4.097,5.829 4.079,2.655 4.54,6.771 4.809,10.946 0.135,2.251 0.077,4.521 0.308,6.752 0.173,1.731 0.846,2.174 2.636,2.231 0.731,0.019 1.48,0 2.328,0 v 5.348 c -5.29,0.904 -9.657,-0.596 -10.735,-5.078 -0.347,-1.635 -0.578,-3.309 -0.654,-5.002 -0.116,-1.789 0.076,-3.578 -0.058,-5.367 -0.385,-4.906 -1.02,-6.56 -5.713,-6.791 v -6.098 c 0.346,-0.077 0.673,-0.135 1.019,-0.173 2.578,-0.135 3.674,-0.924 4.232,-3.463 0.27,-1.423 0.424,-2.866 0.481,-4.328 0.193,-2.789 0.116,-5.636 0.596,-8.406 0.673,-3.982 3.136,-5.906 7.234,-6.137 1.154,-0.058 2.328,0 3.655,0 v 5.464 c -0.558,0.039 -1.039,0.115 -1.539,0.115 -3.328,-0.116 -3.502,1.019 -3.752,3.789 z m 6.406,12.658 h -0.077 c -1.924,-0.096 -3.578,1.404 -3.675,3.328 -0.096,1.943 1.404,3.598 3.328,3.693 h 0.231 c 1.905,0.116 3.539,-1.347 3.655,-3.251 V 50.09 c 0.039,-1.943 -1.519,-3.539 -3.462,-3.578 z m 12.062,0 c -1.866,-0.058 -3.425,1.404 -3.482,3.251 0,0.116 0,0.212 0.02,0.327 0,2.097 1.423,3.444 3.578,3.444 2.116,0 3.444,-1.385 3.444,-3.559 -0.02,-2.097 -1.425,-3.482 -3.56,-3.463 z m 12.351,0 c -1.962,-0.039 -3.598,1.52 -3.655,3.482 0,1.962 1.577,3.539 3.539,3.539 h 0.039 c 1.77,0.308 3.559,-1.404 3.675,-3.462 0.095,-1.905 -1.636,-3.559 -3.598,-3.559 z M 79.569,46.8 C 77.337,46.704 76.221,45.954 75.664,43.837 75.317,42.491 75.106,41.086 75.029,39.701 74.875,37.123 74.894,34.526 74.721,31.948 74.317,25.831 69.893,23.696 63.467,24.753 v 5.31 c 1.019,0 1.808,0 2.597,0.019 1.366,0.019 2.405,0.539 2.539,2.059 0.135,1.385 0.135,2.789 0.27,4.194 0.27,2.79 0.423,5.617 0.904,8.368 0.424,2.27 1.982,3.963 3.924,5.348 -3.404,2.289 -4.405,5.559 -4.578,9.234 -0.096,2.52 -0.154,5.059 -0.288,7.599 -0.116,2.308 -0.923,3.058 -3.251,3.116 -0.654,0.019 -1.289,0.077 -2.02,0.116 v 5.444 c 1.366,0 2.616,0.077 3.866,0 3.886,-0.231 6.233,-2.116 7.003,-5.887 0.327,-2.078 0.519,-4.174 0.577,-6.271 0.134,-1.924 0.116,-3.867 0.308,-5.771 0.288,-2.982 1.654,-4.213 4.636,-4.405 0.289,-0.039 0.558,-0.096 0.828,-0.192 V 46.935 C 80.281,46.877 79.934,46.82 79.569,46.8 Z"
   id="path34"
   inkscape:connector-curvature="0"
   style="fill:#173647" />
	</g>
	<g
   id="g124">
		<g
   id="g52">
			<path
   class="st2"
   d="m 152.273,58.122 c 0,4.029 -1.461,7.169 -4.383,9.424 -2.922,2.254 -6.888,3.381 -11.897,3.381 -5.427,0 -9.602,-0.699 -12.523,-2.098 v -5.135 c 1.878,0.794 3.924,1.42 6.137,1.879 2.212,0.459 4.404,0.688 6.575,0.688 3.548,0 6.22,-0.673 8.015,-2.02 1.795,-1.346 2.692,-3.219 2.692,-5.62 0,-1.586 -0.318,-2.885 -0.955,-3.898 -0.637,-1.012 -1.702,-1.946 -3.194,-2.802 -1.493,-0.856 -3.762,-1.826 -6.81,-2.912 -4.258,-1.523 -7.3,-3.329 -9.126,-5.417 -1.827,-2.087 -2.74,-4.811 -2.74,-8.171 0,-3.527 1.325,-6.335 3.976,-8.422 2.651,-2.087 6.157,-3.131 10.52,-3.131 4.55,0 8.735,0.835 12.555,2.505 l -1.66,4.634 c -3.778,-1.586 -7.452,-2.379 -11.021,-2.379 -2.818,0 -5.021,0.606 -6.606,1.816 -1.586,1.211 -2.379,2.892 -2.379,5.041 0,1.586 0.292,2.886 0.876,3.897 0.584,1.013 1.57,1.941 2.959,2.787 1.388,0.845 3.511,1.779 6.371,2.802 4.801,1.712 8.104,3.549 9.91,5.511 1.805,1.963 2.708,4.509 2.708,7.64 z"
   id="path38"
   inkscape:connector-curvature="0"
   style="fill:#173647" />
			<path
   class="st2"
   d="m 185.288,70.301 -6.293,-20.132 c -0.396,-1.231 -1.138,-4.028 -2.223,-8.391 h -0.25 c -0.835,3.653 -1.565,6.471 -2.192,8.453 L 167.849,70.3 h -6.011 l -9.361,-34.314 h 5.448 c 2.212,8.621 3.898,15.185 5.056,19.693 1.159,4.508 1.821,7.545 1.988,9.11 h 0.25 c 0.229,-1.189 0.6,-2.729 1.111,-4.618 0.511,-1.889 0.955,-3.386 1.331,-4.493 l 6.293,-19.693 h 5.635 l 6.137,19.693 c 1.169,3.59 1.962,6.606 2.379,9.048 h 0.25 c 0.083,-0.751 0.308,-1.91 0.673,-3.475 0.365,-1.565 2.541,-9.988 6.528,-25.266 h 5.385 l -9.487,34.314 h -6.166 z"
   id="path40"
   inkscape:connector-curvature="0"
   style="fill:#173647" />
			<path
   class="st2"
   d="m 225.116,70.301 -1.033,-4.884 h -0.25 c -1.712,2.15 -3.418,3.606 -5.119,4.368 -1.702,0.762 -3.825,1.143 -6.372,1.143 -3.402,0 -6.069,-0.876 -7.999,-2.63 -1.931,-1.753 -2.896,-4.247 -2.896,-7.482 0,-6.93 5.542,-10.562 16.625,-10.896 l 5.823,-0.188 v -2.129 c 0,-2.692 -0.579,-4.681 -1.738,-5.964 -1.158,-1.284 -3.011,-1.926 -5.557,-1.926 -2.86,0 -6.095,0.877 -9.706,2.63 l -1.597,-3.977 c 1.691,-0.918 3.543,-1.638 5.558,-2.16 2.014,-0.521 4.033,-0.782 6.058,-0.782 4.091,0 7.123,0.908 9.095,2.724 1.973,1.816 2.959,4.728 2.959,8.735 v 23.419 h -3.851 z m -11.741,-3.663 c 3.235,0 5.777,-0.887 7.624,-2.661 1.847,-1.774 2.771,-4.258 2.771,-7.452 v -3.1 l -5.197,0.219 c -4.133,0.146 -7.113,0.788 -8.939,1.925 -1.827,1.138 -2.74,2.907 -2.74,5.307 0,1.878 0.569,3.309 1.707,4.289 1.136,0.983 2.728,1.473 4.774,1.473 z"
   id="path42"
   inkscape:connector-curvature="0"
   style="fill:#173647" />
			<path
   class="st2"
   d="m 264.598,35.987 v 3.287 l -6.356,0.751 c 0.584,0.731 1.106,1.686 1.565,2.865 0.459,1.18 0.689,2.51 0.689,3.992 0,3.36 -1.148,6.042 -3.444,8.046 -2.296,2.004 -5.448,3.006 -9.456,3.006 -1.023,0 -1.983,-0.083 -2.88,-0.25 -2.213,1.169 -3.319,2.641 -3.319,4.414 0,0.939 0.386,1.634 1.159,2.082 0.772,0.449 2.098,0.673 3.976,0.673 h 6.074 c 3.715,0 6.57,0.783 8.563,2.348 1.993,1.565 2.99,3.84 2.99,6.825 0,3.799 -1.524,6.695 -4.571,8.688 -3.047,1.993 -7.494,2.99 -13.337,2.99 -4.488,0 -7.948,-0.835 -10.379,-2.505 -2.432,-1.67 -3.647,-4.028 -3.647,-7.076 0,-2.087 0.667,-3.893 2.003,-5.416 1.336,-1.523 3.214,-2.557 5.636,-3.1 -0.876,-0.396 -1.612,-1.013 -2.207,-1.848 -0.595,-0.834 -0.893,-1.805 -0.893,-2.912 0,-1.252 0.334,-2.348 1.002,-3.288 0.668,-0.939 1.722,-1.847 3.162,-2.724 -1.774,-0.73 -3.22,-1.973 -4.336,-3.726 -1.117,-1.753 -1.675,-3.757 -1.675,-6.012 0,-3.757 1.127,-6.653 3.381,-8.688 2.254,-2.035 5.448,-3.053 9.581,-3.053 1.795,0 3.413,0.209 4.853,0.626 h 11.866 z m -27.364,40.075 c 0,1.857 0.783,3.267 2.348,4.228 1.565,0.959 3.809,1.439 6.731,1.439 4.362,0 7.592,-0.652 9.69,-1.956 2.098,-1.305 3.146,-3.074 3.146,-5.308 0,-1.858 -0.575,-3.146 -1.722,-3.867 -1.148,-0.72 -3.309,-1.08 -6.481,-1.08 h -6.23 c -2.359,0 -4.195,0.563 -5.51,1.691 -1.315,1.127 -1.972,2.745 -1.972,4.853 z m 2.817,-29.086 c 0,2.4 0.678,4.216 2.035,5.448 1.356,1.232 3.245,1.847 5.667,1.847 5.072,0 7.608,-2.463 7.608,-7.389 0,-5.155 -2.567,-7.733 -7.702,-7.733 -2.442,0 -4.32,0.657 -5.635,1.973 -1.315,1.314 -1.973,3.266 -1.973,5.854 z"
   id="path44"
   inkscape:connector-curvature="0"
   style="fill:#173647" />
			<path
   class="st2"
   d="m 299.137,35.987 v 3.287 l -6.356,0.751 c 0.584,0.731 1.106,1.686 1.565,2.865 0.459,1.18 0.689,2.51 0.689,3.992 0,3.36 -1.148,6.042 -3.444,8.046 -2.296,2.004 -5.448,3.006 -9.456,3.006 -1.023,0 -1.983,-0.083 -2.88,-0.25 -2.213,1.169 -3.319,2.641 -3.319,4.414 0,0.939 0.386,1.634 1.159,2.082 0.772,0.449 2.098,0.673 3.976,0.673 h 6.074 c 3.715,0 6.57,0.783 8.563,2.348 1.993,1.565 2.99,3.84 2.99,6.825 0,3.799 -1.524,6.695 -4.571,8.688 -3.047,1.993 -7.494,2.99 -13.337,2.99 -4.488,0 -7.948,-0.835 -10.379,-2.505 -2.432,-1.67 -3.647,-4.028 -3.647,-7.076 0,-2.087 0.667,-3.893 2.003,-5.416 1.336,-1.523 3.214,-2.557 5.636,-3.1 -0.876,-0.396 -1.612,-1.013 -2.207,-1.848 -0.595,-0.834 -0.893,-1.805 -0.893,-2.912 0,-1.252 0.334,-2.348 1.002,-3.288 0.668,-0.939 1.722,-1.847 3.162,-2.724 -1.774,-0.73 -3.22,-1.973 -4.336,-3.726 -1.117,-1.753 -1.675,-3.757 -1.675,-6.012 0,-3.757 1.127,-6.653 3.381,-8.688 2.254,-2.035 5.448,-3.053 9.581,-3.053 1.795,0 3.413,0.209 4.853,0.626 h 11.866 z m -27.364,40.075 c 0,1.857 0.783,3.267 2.348,4.228 1.565,0.959 3.809,1.439 6.731,1.439 4.362,0 7.592,-0.652 9.69,-1.956 2.098,-1.305 3.146,-3.074 3.146,-5.308 0,-1.858 -0.575,-3.146 -1.722,-3.867 -1.148,-0.72 -3.309,-1.08 -6.481,-1.08 h -6.23 c -2.359,0 -4.195,0.563 -5.51,1.691 -1.315,1.127 -1.972,2.745 -1.972,4.853 z m 2.817,-29.086 c 0,2.4 0.678,4.216 2.035,5.448 1.356,1.232 3.245,1.847 5.667,1.847 5.072,0 7.608,-2.463 7.608,-7.389 0,-5.155 -2.567,-7.733 -7.702,-7.733 -2.442,0 -4.32,0.657 -5.635,1.973 -1.315,1.314 -1.973,3.266 -1.973,5.854 z"
   id="path46"
   inkscape:connector-curvature="0"
   style="fill:#173647" />
			<path
   class="st2"
   d="m 316.778,70.927 c -5.072,0 -9.075,-1.544 -12.007,-4.634 -2.933,-3.089 -4.399,-7.378 -4.399,-12.868 0,-5.531 1.362,-9.925 4.086,-13.181 2.724,-3.256 6.381,-4.884 10.974,-4.884 4.3,0 7.702,1.415 10.207,4.243 2.505,2.828 3.757,6.559 3.757,11.192 v 3.288 h -23.638 c 0.104,4.028 1.122,7.086 3.052,9.173 1.931,2.087 4.649,3.131 8.156,3.131 3.694,0 7.347,-0.772 10.958,-2.317 v 4.634 c -1.837,0.793 -3.575,1.362 -5.213,1.706 -1.638,0.345 -3.616,0.517 -5.933,0.517 z M 315.37,39.712 c -2.755,0 -4.952,0.897 -6.591,2.692 -1.639,1.795 -2.604,4.279 -2.896,7.452 h 17.94 c 0,-3.277 -0.73,-5.787 -2.191,-7.53 -1.462,-1.742 -3.549,-2.614 -6.262,-2.614 z"
   id="path48"
   inkscape:connector-curvature="0"
   style="fill:#173647" />
			<path
   class="st2"
   d="m 350.898,35.36 c 1.523,0 2.891,0.125 4.102,0.375 l -0.72,4.822 c -1.42,-0.313 -2.672,-0.469 -3.757,-0.469 -2.776,0 -5.15,1.127 -7.123,3.381 -1.973,2.254 -2.959,5.062 -2.959,8.422 v 18.41 h -5.197 V 35.987 h 4.29 l 0.595,6.355 h 0.25 c 1.273,-2.233 2.807,-3.955 4.603,-5.166 1.793,-1.21 3.765,-1.816 5.916,-1.816 z"
   id="path50"
   inkscape:connector-curvature="0"
   style="fill:#173647" />
		</g>
		<g
   id="g122">
			<g
   id="g120">
				<g
   id="g94">
					<g
   id="g92">
						<g
   id="g90">
							<g
   id="g56">
								<path
   class="st2"
   d="m 255.857,96.638 c 0,0 -3.43,-0.391 -4.85,-0.391 -2.058,0 -3.111,0.735 -3.111,2.18 0,1.568 0.882,1.935 3.748,2.719 3.528,0.98 4.801,1.911 4.801,4.777 0,3.675 -2.302,5.267 -5.609,5.267 -2.18,0 -5.487,-0.662 -5.487,-0.662 l 0.269,-2.18 c 0,0 3.307,0.441 5.046,0.441 2.082,0 3.037,-0.931 3.037,-2.695 0,-1.421 -0.759,-1.911 -3.332,-2.523 -3.625,-0.93 -5.193,-2.033 -5.193,-4.948 0,-3.381 2.229,-4.777 5.585,-4.777 2.131,0 5.316,0.587 5.316,0.587 z"
   id="path54"
   inkscape:connector-curvature="0"
   style="fill:#173647" />
							</g>
							<g
   id="g60">
								<path
   class="st2"
   d="m 262.967,94.14 h 4.728 l 3.748,13.105 3.748,-13.105 h 4.752 v 16.78 H 277.2 V 96.418 h -0.144 l -4.191,13.816 h -2.842 l -4.192,-13.816 h -0.145 v 14.502 h -2.719 z"
   id="path58"
   inkscape:connector-curvature="0"
   style="fill:#173647" />
							</g>
							<g
   id="g64">
								<path
   class="st2"
   d="m 322.057,94.14 h 12.248 v 2.425 h -4.728 v 14.355 h -2.743 V 96.565 h -4.777 z"
   id="path62"
   inkscape:connector-curvature="0"
   style="fill:#173647" />
							</g>
							<g
   id="g68">
								<path
   class="st2"
   d="m 346.137,94.14 c 3.332,0 5.12,1.249 5.12,4.36 0,2.033 -0.637,3.037 -1.984,3.772 1.445,0.563 2.4,1.592 2.4,3.895 0,3.43 -2.082,4.753 -5.34,4.753 h -6.566 V 94.14 Z m -3.65,2.352 v 4.802 h 3.601 c 1.666,0 2.4,-0.833 2.4,-2.475 0,-1.616 -0.833,-2.327 -2.498,-2.327 z m 0,7.104 v 4.973 h 3.7 c 1.69,0 2.694,-0.539 2.694,-2.548 0,-1.911 -1.421,-2.425 -2.743,-2.425 z"
   id="path66"
   inkscape:connector-curvature="0"
   style="fill:#173647" />
							</g>
							<g
   id="g72">
								<path
   class="st2"
   d="m 358.414,94.14 h 10.583 v 2.376 h -7.864 v 4.752 h 6.394 v 2.328 h -6.394 v 4.924 h 7.864 v 2.4 h -10.583 z"
   id="path70"
   inkscape:connector-curvature="0"
   style="fill:#173647" />
							</g>
							<g
   id="g76">
								<path
   class="st2"
   d="m 378.747,94.14 h 5.413 l 4.164,16.78 h -2.743 l -1.239,-4.924 h -5.777 l -1.239,4.924 h -2.719 z m 0.361,9.456 h 4.707 l -1.737,-7.178 h -1.225 z"
   id="path74"
   inkscape:connector-curvature="0"
   style="fill:#173647" />
							</g>
							<g
   id="g80">
								<path
   class="st2"
   d="m 397.096,105.947 v 4.973 h -2.719 V 94.14 h 6.37 c 3.699,0 5.683,2.119 5.683,5.842 0,2.376 -0.955,4.52 -2.743,5.352 l 2.768,5.585 h -2.989 l -2.425,-4.973 h -3.945 z m 3.651,-9.455 h -3.65 v 7.105 h 3.7 c 2.058,0 2.841,-1.85 2.841,-3.589 -10e-4,-1.912 -0.931,-3.516 -2.891,-3.516 z"
   id="path78"
   inkscape:connector-curvature="0"
   style="fill:#173647" />
							</g>
							<g
   id="g84">
								<path
   class="st2"
   d="m 290.013,94.14 h 5.413 l 4.164,16.78 h -2.743 l -1.239,-4.924 h -5.777 l -1.239,4.924 h -2.719 z m 0.361,9.456 h 4.707 l -1.737,-7.178 h -1.225 z"
   id="path82"
   inkscape:connector-curvature="0"
   style="fill:#173647" />
							</g>
							<g
   id="g88">
								<path
   class="st2"
   d="m 308.362,105.947 v 4.973 h -2.719 V 94.14 h 6.369 c 3.699,0 5.683,2.119 5.683,5.842 0,2.376 -0.955,4.52 -2.743,5.352 l 2.768,5.585 h -2.989 l -2.425,-4.973 h -3.944 z m 3.65,-9.455 h -3.65 v 7.105 h 3.699 c 2.058,0 2.841,-1.85 2.841,-3.589 0,-1.912 -0.93,-3.516 -2.89,-3.516 z"
   id="path86"
   inkscape:connector-curvature="0"
   style="fill:#173647" />
							</g>
						</g>
					</g>
				</g>
				<g
   id="g118">
					<path
   class="st2"
   d="m 130.606,107.643 c 0,1.085 -0.393,1.931 -1.18,2.537 -0.787,0.606 -1.854,0.91 -3.202,0.91 -1.461,0 -2.584,-0.188 -3.371,-0.564 v -1.383 c 0.506,0.214 1.056,0.383 1.652,0.506 0.596,0.124 1.186,0.186 1.77,0.186 0.955,0 1.674,-0.181 2.158,-0.544 0.483,-0.362 0.725,-0.866 0.725,-1.512 0,-0.428 -0.086,-0.777 -0.257,-1.05 -0.171,-0.273 -0.458,-0.523 -0.859,-0.754 -0.401,-0.231 -1.013,-0.491 -1.833,-0.784 -1.146,-0.41 -1.965,-0.896 -2.457,-1.458 -0.491,-0.562 -0.737,-1.294 -0.737,-2.199 0,-0.949 0.357,-1.705 1.07,-2.267 0.713,-0.562 1.657,-0.843 2.832,-0.843 1.225,0 2.351,0.225 3.379,0.674 l -0.447,1.247 c -1.017,-0.427 -2.005,-0.64 -2.966,-0.64 -0.758,0 -1.351,0.163 -1.778,0.488 -0.427,0.326 -0.64,0.778 -0.64,1.356 0,0.428 0.079,0.777 0.236,1.05 0.157,0.273 0.423,0.522 0.796,0.75 0.373,0.228 0.945,0.479 1.715,0.754 1.292,0.461 2.181,0.955 2.667,1.483 0.484,0.53 0.727,1.215 0.727,2.057 z"
   id="path96"
   inkscape:connector-curvature="0"
   style="fill:#173647" />
					<path
   class="st2"
   d="m 134.447,101.686 v 5.991 c 0,0.753 0.171,1.314 0.514,1.686 0.342,0.371 0.879,0.556 1.609,0.556 0.966,0 1.673,-0.264 2.12,-0.792 0.446,-0.527 0.67,-1.391 0.67,-2.587 v -4.854 h 1.399 v 9.235 h -1.155 l -0.202,-1.238 h -0.076 c -0.287,0.455 -0.684,0.803 -1.192,1.045 -0.509,0.241 -1.089,0.362 -1.74,0.362 -1.124,0 -1.965,-0.267 -2.524,-0.801 -0.559,-0.533 -0.839,-1.388 -0.839,-2.562 v -6.042 h 1.416 z"
   id="path98"
   inkscape:connector-curvature="0"
   style="fill:#173647" />
					<path
   class="st2"
   d="m 148.206,111.09 c -0.601,0 -1.15,-0.111 -1.647,-0.333 -0.497,-0.222 -0.914,-0.563 -1.251,-1.023 h -0.101 c 0.067,0.539 0.101,1.05 0.101,1.533 v 3.801 h -1.398 v -13.382 h 1.137 l 0.194,1.264 h 0.067 c 0.36,-0.506 0.778,-0.871 1.256,-1.096 0.478,-0.225 1.025,-0.337 1.643,-0.337 1.225,0 2.17,0.419 2.836,1.256 0.666,0.837 0.999,2.011 0.999,3.522 0,1.517 -0.338,2.695 -1.016,3.535 -0.678,0.84 -1.618,1.26 -2.82,1.26 z m -0.202,-8.384 c -0.944,0 -1.626,0.261 -2.048,0.783 -0.422,0.522 -0.638,1.354 -0.649,2.494 v 0.312 c 0,1.298 0.216,2.226 0.649,2.785 0.433,0.559 1.126,0.838 2.082,0.838 0.798,0 1.423,-0.322 1.875,-0.969 0.452,-0.646 0.679,-1.536 0.679,-2.671 0,-1.152 -0.227,-2.035 -0.679,-2.65 -0.452,-0.615 -1.089,-0.922 -1.909,-0.922 z"
   id="path100"
   inkscape:connector-curvature="0"
   style="fill:#173647" />
					<path
   class="st2"
   d="m 159.04,111.09 c -0.601,0 -1.15,-0.111 -1.647,-0.333 -0.497,-0.222 -0.914,-0.563 -1.251,-1.023 h -0.101 c 0.067,0.539 0.101,1.05 0.101,1.533 v 3.801 h -1.398 v -13.382 h 1.137 l 0.194,1.264 h 0.067 c 0.36,-0.506 0.778,-0.871 1.256,-1.096 0.478,-0.225 1.025,-0.337 1.643,-0.337 1.225,0 2.17,0.419 2.836,1.256 0.666,0.837 0.999,2.011 0.999,3.522 0,1.517 -0.338,2.695 -1.016,3.535 -0.678,0.84 -1.618,1.26 -2.82,1.26 z m -0.202,-8.384 c -0.944,0 -1.626,0.261 -2.048,0.783 -0.422,0.522 -0.638,1.354 -0.649,2.494 v 0.312 c 0,1.298 0.216,2.226 0.649,2.785 0.433,0.559 1.126,0.838 2.082,0.838 0.798,0 1.423,-0.322 1.875,-0.969 0.452,-0.646 0.679,-1.536 0.679,-2.671 0,-1.152 -0.227,-2.035 -0.679,-2.65 -0.452,-0.615 -1.089,-0.922 -1.909,-0.922 z"
   id="path102"
   inkscape:connector-curvature="0"
   style="fill:#173647" />
					<path
   class="st2"
   d="m 173.613,106.295 c 0,1.506 -0.379,2.681 -1.138,3.526 -0.758,0.846 -1.806,1.269 -3.143,1.269 -0.826,0 -1.559,-0.194 -2.2,-0.582 -0.64,-0.388 -1.135,-0.943 -1.483,-1.668 -0.349,-0.725 -0.522,-1.573 -0.522,-2.545 0,-1.506 0.376,-2.679 1.129,-3.519 0.753,-0.84 1.798,-1.26 3.135,-1.26 1.292,0 2.318,0.43 3.08,1.289 0.762,0.861 1.142,2.024 1.142,3.49 z m -7.037,0 c 0,1.18 0.236,2.078 0.708,2.696 0.472,0.618 1.166,0.927 2.082,0.927 0.916,0 1.611,-0.308 2.085,-0.923 0.475,-0.614 0.712,-1.515 0.712,-2.7 0,-1.175 -0.238,-2.066 -0.712,-2.676 -0.474,-0.61 -1.175,-0.914 -2.103,-0.914 -0.916,0 -1.606,0.3 -2.073,0.901 -0.467,0.601 -0.699,1.498 -0.699,2.689 z"
   id="path104"
   inkscape:connector-curvature="0"
   style="fill:#173647" />
					<path
   class="st2"
   d="m 180.526,101.517 c 0.41,0 0.778,0.033 1.104,0.101 l -0.194,1.298 c -0.382,-0.084 -0.719,-0.126 -1.011,-0.126 -0.748,0 -1.386,0.304 -1.917,0.91 -0.531,0.606 -0.796,1.362 -0.796,2.267 v 4.955 h -1.398 v -9.235 h 1.154 l 0.16,1.71 h 0.067 c 0.343,-0.601 0.755,-1.064 1.239,-1.391 0.482,-0.326 1.013,-0.489 1.592,-0.489 z"
   id="path106"
   inkscape:connector-curvature="0"
   style="fill:#173647" />
					<path
   class="st2"
   d="m 187.363,109.936 c 0.247,0 0.486,-0.019 0.716,-0.055 0.23,-0.037 0.413,-0.075 0.548,-0.114 v 1.07 c -0.152,0.073 -0.375,0.134 -0.67,0.181 -0.295,0.048 -0.561,0.072 -0.796,0.072 -1.787,0 -2.68,-0.941 -2.68,-2.823 v -5.494 h -1.323 v -0.675 l 1.323,-0.581 0.59,-1.972 h 0.809 v 2.141 h 2.68 v 1.087 h -2.68 v 5.436 c 0,0.556 0.132,0.982 0.396,1.28 0.264,0.298 0.627,0.447 1.087,0.447 z"
   id="path108"
   inkscape:connector-curvature="0"
   style="fill:#173647" />
					<path
   class="st2"
   d="m 194.539,111.09 c -1.365,0 -2.442,-0.416 -3.231,-1.247 -0.79,-0.832 -1.184,-1.986 -1.184,-3.464 0,-1.488 0.366,-2.671 1.1,-3.548 0.733,-0.876 1.718,-1.314 2.954,-1.314 1.157,0 2.073,0.381 2.747,1.142 0.674,0.762 1.011,1.766 1.011,3.013 v 0.885 h -6.362 c 0.028,1.085 0.302,1.907 0.822,2.47 0.52,0.562 1.251,0.843 2.195,0.843 0.994,0 1.978,-0.208 2.949,-0.624 v 1.247 c -0.494,0.214 -0.962,0.367 -1.403,0.459 -0.443,0.092 -0.975,0.138 -1.598,0.138 z m -0.379,-8.402 c -0.742,0 -1.333,0.242 -1.774,0.726 -0.441,0.482 -0.701,1.151 -0.78,2.005 h 4.829 c 0,-0.882 -0.196,-1.558 -0.59,-2.026 -0.393,-0.47 -0.955,-0.705 -1.685,-0.705 z"
   id="path110"
   inkscape:connector-curvature="0"
   style="fill:#173647" />
					<path
   class="st2"
   d="m 206.951,109.683 h -0.076 c -0.646,0.938 -1.612,1.407 -2.899,1.407 -1.208,0 -2.147,-0.413 -2.819,-1.239 -0.671,-0.825 -1.007,-2 -1.007,-3.522 0,-1.522 0.337,-2.705 1.011,-3.548 0.674,-0.843 1.612,-1.264 2.814,-1.264 1.253,0 2.213,0.455 2.882,1.365 h 0.109 l -0.059,-0.666 -0.034,-0.648 v -3.759 h 1.399 v 13.112 h -1.138 z m -2.797,0.236 c 0.955,0 1.647,-0.26 2.077,-0.779 0.43,-0.519 0.645,-1.358 0.645,-2.516 v -0.295 c 0,-1.309 -0.218,-2.242 -0.653,-2.802 -0.436,-0.559 -1.131,-0.839 -2.086,-0.839 -0.82,0 -1.448,0.319 -1.883,0.957 -0.436,0.638 -0.653,1.538 -0.653,2.701 0,1.18 0.216,2.07 0.649,2.671 0.432,0.602 1.067,0.902 1.904,0.902 z"
   id="path112"
   inkscape:connector-curvature="0"
   style="fill:#173647" />
					<path
   class="st2"
   d="m 220.713,101.534 c 1.214,0 2.156,0.415 2.828,1.243 0.671,0.829 1.007,2.001 1.007,3.519 0,1.517 -0.338,2.695 -1.016,3.535 -0.677,0.84 -1.617,1.26 -2.819,1.26 -0.601,0 -1.15,-0.111 -1.647,-0.333 -0.497,-0.222 -0.914,-0.563 -1.251,-1.023 h -0.101 l -0.295,1.188 h -1.002 V 97.809 h 1.398 v 3.186 c 0,0.714 -0.022,1.354 -0.067,1.921 h 0.067 c 0.65,-0.921 1.617,-1.382 2.898,-1.382 z m -0.203,1.172 c -0.955,0 -1.643,0.273 -2.064,0.821 -0.421,0.548 -0.632,1.471 -0.632,2.769 0,1.298 0.216,2.226 0.649,2.785 0.433,0.559 1.126,0.838 2.082,0.838 0.86,0 1.5,-0.312 1.921,-0.939 0.421,-0.626 0.632,-1.526 0.632,-2.7 0,-1.203 -0.211,-2.099 -0.632,-2.688 -0.421,-0.589 -1.074,-0.886 -1.956,-0.886 z"
   id="path114"
   inkscape:connector-curvature="0"
   style="fill:#173647" />
					<path
   class="st2"
   d="m 225.759,101.686 h 1.5 l 2.022,5.267 c 0.443,1.202 0.719,2.07 0.826,2.604 h 0.067 c 0.073,-0.286 0.226,-0.776 0.459,-1.471 0.233,-0.693 0.996,-2.827 2.288,-6.399 h 1.5 l -3.969,10.517 c -0.394,1.039 -0.853,1.776 -1.378,2.212 -0.525,0.436 -1.17,0.653 -1.934,0.653 -0.427,0 -0.849,-0.048 -1.264,-0.144 v -1.121 c 0.309,0.068 0.654,0.102 1.037,0.102 0.96,0 1.646,-0.539 2.056,-1.618 l 0.514,-1.314 z"
   id="path116"
   inkscape:connector-curvature="0"
   style="fill:#173647" />
				</g>
			</g>
		</g>
	</g>
</g>
</svg>